<?xml version="1.0" encoding="UTF-8"?>
<svg version="1.1" xmlns="http://www.w3.org/2000/svg" width="500" height="500">
<path d="M0 0 C2.3143988 -0.00217769 4.62831239 -0.02038318 6.94262695 -0.03930664 C39.69728298 -0.16280328 71.91718199 7.76980144 102.02270508 20.37280273 C103.17186401 20.85378418 103.17186401 20.85378418 104.34423828 21.34448242 C108.98663913 23.33959781 113.29020106 25.62896841 117.64770508 28.18530273 C119.64556934 29.23105981 121.64557317 30.27273959 123.64770508 31.31030273 C135.50868447 37.68336629 147.44349761 45.36825941 157.64770508 54.18530273 C157.64770508 54.84530273 157.64770508 55.50530273 157.64770508 56.18530273 C158.96770508 56.51530273 160.28770508 56.84530273 161.64770508 57.18530273 C161.64770508 57.84530273 161.64770508 58.50530273 161.64770508 59.18530273 C162.30770508 59.18530273 162.96770508 59.18530273 163.64770508 59.18530273 C163.64770508 59.84530273 163.64770508 60.50530273 163.64770508 61.18530273 C164.20458008 61.43280273 164.76145508 61.68030273 165.33520508 61.93530273 C168.07181421 63.41455091 170.32421377 65.11997713 172.64770508 67.18530273 C172.64770508 67.84530273 172.64770508 68.50530273 172.64770508 69.18530273 C173.18911133 69.39155273 173.73051758 69.59780273 174.28833008 69.81030273 C177.56888519 71.72214942 179.88614682 74.39028777 182.39770508 77.18530273 C182.90430664 77.73186523 183.4109082 78.27842773 183.93286133 78.84155273 C187.64770508 82.92687955 187.64770508 82.92687955 187.64770508 85.18530273 C188.30770508 85.18530273 188.96770508 85.18530273 189.64770508 85.18530273 C189.64770508 85.84530273 189.64770508 86.50530273 189.64770508 87.18530273 C190.30770508 87.18530273 190.96770508 87.18530273 191.64770508 87.18530273 C193.19842966 88.96153109 194.61500137 90.73689703 196.02270508 92.62280273 C196.45389648 93.1917627 196.88508789 93.76072266 197.3293457 94.34692383 C215.64770508 118.71711672 215.64770508 118.71711672 215.64770508 123.18530273 C216.30770508 123.18530273 216.96770508 123.18530273 217.64770508 123.18530273 C222.48544354 131.66966981 226.66803049 140.40338665 230.75317383 149.26538086 C231.4900554 150.84694109 232.25292148 152.41636791 233.02270508 153.98217773 C237.54632778 163.32702989 240.55515668 173.29652032 243.64770508 183.18530273 C243.96336426 184.19101318 243.96336426 184.19101318 244.28540039 185.21704102 C247.98005679 197.24893869 249.87973114 209.7467364 251.64770508 222.18530273 C251.80891846 223.31391724 251.80891846 223.31391724 251.97338867 224.46533203 C256.82099233 264.59078382 252.30822584 313.27556174 232.71411133 349.16577148 C231.01323405 352.38684676 229.85523636 355.75337173 228.64770508 359.18530273 C227.98770508 359.18530273 227.32770508 359.18530273 226.64770508 359.18530273 C226.53297852 359.73573242 226.41825195 360.28616211 226.30004883 360.85327148 C221.2772509 378.80902218 205.84616688 395.86621408 194.37426758 410.02905273 C193.21859486 411.47233631 192.10853643 412.9532893 191.04614258 414.46655273 C190.35391602 415.31733398 190.35391602 415.31733398 189.64770508 416.18530273 C188.98770508 416.18530273 188.32770508 416.18530273 187.64770508 416.18530273 C187.64770508 416.84530273 187.64770508 417.50530273 187.64770508 418.18530273 C186.98770508 418.18530273 186.32770508 418.18530273 185.64770508 418.18530273 C185.64770508 418.84530273 185.64770508 419.50530273 185.64770508 420.18530273 C184.98770508 420.18530273 184.32770508 420.18530273 183.64770508 420.18530273 C183.38989258 420.76795898 183.13208008 421.35061523 182.86645508 421.95092773 C181.54936491 424.36559304 180.09682124 426.00270451 178.14770508 427.93530273 C177.53926758 428.54889648 176.93083008 429.16249023 176.30395508 429.79467773 C174.64770508 431.18530273 174.64770508 431.18530273 172.64770508 431.18530273 C172.64770508 431.84530273 172.64770508 432.50530273 172.64770508 433.18530273 C171.98770508 433.18530273 171.32770508 433.18530273 170.64770508 433.18530273 C170.64770508 433.84530273 170.64770508 434.50530273 170.64770508 435.18530273 C169.98770508 435.18530273 169.32770508 435.18530273 168.64770508 435.18530273 C168.64770508 435.84530273 168.64770508 436.50530273 168.64770508 437.18530273 C164.17711684 441.18530273 164.17711684 441.18530273 161.64770508 441.18530273 C161.64770508 441.84530273 161.64770508 442.50530273 161.64770508 443.18530273 C159.74926758 444.91186523 159.74926758 444.91186523 157.27270508 446.81030273 C156.4605957 447.44194336 155.64848633 448.07358398 154.81176758 448.72436523 C152.64770508 450.18530273 152.64770508 450.18530273 150.64770508 450.18530273 C150.64770508 450.84530273 150.64770508 451.50530273 150.64770508 452.18530273 C146.8616504 455.14733375 142.70550805 457.61240935 138.64770508 460.18530273 C137.64344482 460.83112305 137.64344482 460.83112305 136.61889648 461.48999023 C125.37323643 468.70055012 113.87650253 474.81316167 101.64770508 480.18530273 C101.0133252 480.46712402 100.37894531 480.74894531 99.7253418 481.03930664 C84.07351467 487.91218652 67.5001599 492.61557354 50.77270508 495.99780273 C49.81251465 496.19253174 48.85232422 496.38726074 47.86303711 496.58789062 C33.45355485 499.34754101 19.28666227 500.52092302 4.63647461 500.44604492 C2.14908496 500.43530869 -0.33758289 500.44602713 -2.82495117 500.45874023 C-17.62053236 500.4728841 -31.96409377 498.94111597 -46.47729492 495.99780273 C-47.52643066 495.78567139 -48.57556641 495.57354004 -49.65649414 495.35498047 C-66.08349794 491.89996776 -81.92118249 486.76082953 -97.35229492 480.18530273 C-99.0172539 479.51438261 -100.68328521 478.84608167 -102.35229492 478.18530273 C-102.35229492 477.52530273 -102.35229492 476.86530273 -102.35229492 476.18530273 C-102.99553711 476.11053711 -103.6387793 476.03577148 -104.30151367 475.95874023 C-108.60135156 474.86864049 -112.26019384 472.88462206 -116.16479492 470.81030273 C-117.41969727 470.14526733 -117.41969727 470.14526733 -118.69995117 469.46679688 C-131.24894732 462.67774242 -142.46522918 454.37589681 -153.35229492 445.18530273 C-155.2267847 443.68466517 -157.10178887 442.18466995 -158.97729492 440.68530273 C-164.10835657 436.49249236 -168.75576382 431.9503421 -173.35229492 427.18530273 C-174.19791992 426.33967773 -175.04354492 425.49405273 -175.91479492 424.62280273 C-177.12135742 423.41624023 -177.12135742 423.41624023 -178.35229492 422.18530273 C-179.25915039 421.31325195 -179.25915039 421.31325195 -180.18432617 420.42358398 C-185.02052822 415.7168405 -189.60804613 410.82507747 -193.35229492 405.18530273 C-193.35229492 404.52530273 -193.35229492 403.86530273 -193.35229492 403.18530273 C-194.01229492 403.18530273 -194.67229492 403.18530273 -195.35229492 403.18530273 C-201.05062084 396.41280963 -205.71394817 388.70534577 -210.35229492 381.18530273 C-211.0406543 380.09991211 -211.72901367 379.01452148 -212.43823242 377.89624023 C-233.45636139 344.31480098 -247.35943671 303.96760392 -247.55541992 264.13842773 C-247.56112 263.20593201 -247.56682007 262.27343628 -247.57269287 261.31268311 C-247.58207932 259.34624338 -247.58865132 257.37978838 -247.5925293 255.41333008 C-247.60213472 252.48415613 -247.63317805 249.55571599 -247.66479492 246.62670898 C-247.76458976 229.00058417 -245.92732029 211.73971615 -241.60229492 194.62280273 C-241.34770508 193.59179443 -241.09311523 192.56078613 -240.83081055 191.49853516 C-235.68662715 171.2160663 -228.37710487 152.22279932 -218.28979492 133.90014648 C-217.44089116 132.34736003 -216.61401918 130.78257883 -215.78979492 129.21655273 C-212.63573884 123.25127275 -209.11295845 117.64395841 -205.31323242 112.06811523 C-202.99930026 108.66635839 -200.783558 105.2055049 -198.57885742 101.73217773 C-198.1740918 101.22170898 -197.76932617 100.71124023 -197.35229492 100.18530273 C-196.69229492 100.18530273 -196.03229492 100.18530273 -195.35229492 100.18530273 C-194.69229492 98.53530273 -194.03229492 96.88530273 -193.35229492 95.18530273 C-192.69229492 95.18530273 -192.03229492 95.18530273 -191.35229492 95.18530273 C-191.04291992 94.56655273 -190.73354492 93.94780273 -190.41479492 93.31030273 C-189.72729492 91.93530273 -189.03979492 90.56030273 -188.35229492 89.18530273 C-187.69229492 89.18530273 -187.03229492 89.18530273 -186.35229492 89.18530273 C-185.98104492 88.34999023 -185.98104492 88.34999023 -185.60229492 87.49780273 C-184.12304674 84.7611936 -182.41762053 82.50879404 -180.35229492 80.18530273 C-179.69229492 80.18530273 -179.03229492 80.18530273 -178.35229492 80.18530273 C-177.96557617 79.31131836 -177.96557617 79.31131836 -177.57104492 78.41967773 C-176.25395476 76.00501243 -174.80141108 74.36790096 -172.85229492 72.43530273 C-172.24385742 71.82170898 -171.63541992 71.20811523 -171.00854492 70.57592773 C-169.35229492 69.18530273 -169.35229492 69.18530273 -167.35229492 69.18530273 C-167.35229492 68.52530273 -167.35229492 67.86530273 -167.35229492 67.18530273 C-166.69229492 67.18530273 -166.03229492 67.18530273 -165.35229492 67.18530273 C-165.35229492 66.52530273 -165.35229492 65.86530273 -165.35229492 65.18530273 C-163.89135742 63.67749023 -163.89135742 63.67749023 -161.97729492 62.06030273 C-161.35081055 61.52147461 -160.72432617 60.98264648 -160.07885742 60.42749023 C-158.35229492 59.18530273 -158.35229492 59.18530273 -156.35229492 59.18530273 C-156.35229492 58.52530273 -156.35229492 57.86530273 -156.35229492 57.18530273 C-154.1429417 55.31846098 -151.92799153 53.58558224 -149.60229492 51.87280273 C-148.89145752 51.34589844 -148.18062012 50.81899414 -147.44824219 50.27612305 C-134.11349226 40.51485026 -120.2469913 31.38897491 -105.35229492 24.18530273 C-104.67553711 23.85723633 -103.9987793 23.52916992 -103.30151367 23.19116211 C-71.01814635 7.75770589 -35.72237905 -0.00374174 0 0 Z M-129.35229492 101.18530273 C-129.35229492 105.14530273 -129.35229492 109.10530273 -129.35229492 113.18530273 C-127.36069336 113.44053711 -127.36069336 113.44053711 -125.32885742 113.70092773 C-101.14391996 116.95302996 -101.14391996 116.95302996 -94.35229492 125.18530273 C-93.79541992 125.80405273 -93.23854492 126.42280273 -92.66479492 127.06030273 C-89.1153153 132.80707927 -89.06377372 138.92556033 -89.09832764 145.47042847 C-89.09520766 146.38477508 -89.09208767 147.29912169 -89.08887315 148.24117577 C-89.08091869 151.29406952 -89.08720692 154.3467631 -89.09350586 157.3996582 C-89.09079483 159.59295772 -89.08723327 161.78625633 -89.08288574 163.97955322 C-89.07377176 169.92998918 -89.07730224 175.88035574 -89.08364391 181.8307929 C-89.08871028 188.06193064 -89.08401057 194.29306247 -89.08087158 200.52420044 C-89.07700025 211.66046544 -89.08321387 222.79670318 -89.09339026 233.93296279 C-89.10232092 244.01790554 -89.10077685 254.10280223 -89.09155273 264.18774414 C-89.08083439 275.91177583 -89.07687416 287.63578065 -89.08277726 299.35981667 C-89.08589186 305.56115647 -89.08632041 311.76246459 -89.07970428 317.96380234 C-89.07391629 323.79638823 -89.07795441 329.62888738 -89.0894928 335.46146393 C-89.09213184 337.59916414 -89.09138723 339.73687167 -89.08696747 341.87456894 C-89.08148061 344.79854694 -89.08838427 347.72224915 -89.09832764 350.64620972 C-89.09386619 351.48679172 -89.08940475 352.32737373 -89.08480811 353.19342792 C-89.14029523 361.63947059 -90.33261628 368.32507525 -95.35229492 375.18530273 C-95.35229492 375.84530273 -95.35229492 376.50530273 -95.35229492 377.18530273 C-96.01229492 377.18530273 -96.67229492 377.18530273 -97.35229492 377.18530273 C-97.35229492 377.84530273 -97.35229492 378.50530273 -97.35229492 379.18530273 C-98.58979492 379.58749023 -98.58979492 379.58749023 -99.85229492 379.99780273 C-102.25258009 380.8121852 -104.62811966 381.70223172 -106.97729492 382.65405273 C-111.52209871 384.36568448 -116.0634899 385.1591616 -120.85229492 385.87280273 C-121.6747168 386.00235352 -122.49713867 386.1319043 -123.34448242 386.26538086 C-125.34591781 386.57955967 -127.34895334 386.8835173 -129.35229492 387.18530273 C-129.35229492 390.81530273 -129.35229492 394.44530273 -129.35229492 398.18530273 C-108.63684437 398.23216238 -87.92140265 398.2673597 -67.20590973 398.28892708 C-57.58590414 398.29921033 -47.96593162 398.31321379 -38.34594727 398.33618164 C-29.95463681 398.35620635 -21.56335031 398.36904058 -13.17201662 398.37347972 C-8.73482068 398.37607182 -4.29769325 398.38210183 0.13948059 398.39676285 C4.32879545 398.41049078 8.51801456 398.41449517 12.70734978 398.4115181 C14.23256389 398.41206154 15.75778171 398.41594736 17.28297615 398.42371368 C44.83961334 398.55696998 71.97900021 393.52578462 94.64770508 377.18530273 C95.51782227 376.57944336 96.38793945 375.97358398 97.28442383 375.34936523 C100.06606762 373.38852764 100.06606762 373.38852764 102.64770508 371.18530273 C102.64770508 370.52530273 102.64770508 369.86530273 102.64770508 369.18530273 C103.30770508 369.18530273 103.96770508 369.18530273 104.64770508 369.18530273 C104.64770508 368.52530273 104.64770508 367.86530273 104.64770508 367.18530273 C105.30770508 367.18530273 105.96770508 367.18530273 106.64770508 367.18530273 C107.30770508 365.53530273 107.96770508 363.88530273 108.64770508 362.18530273 C109.30770508 362.18530273 109.96770508 362.18530273 110.64770508 362.18530273 C123.31757692 345.04746601 126.56575368 322.46811784 123.96020508 301.74780273 C122.05024039 290.64613296 117.69768548 280.04661311 110.64770508 271.18530273 C109.98770508 271.18530273 109.32770508 271.18530273 108.64770508 271.18530273 C108.64770508 270.52530273 108.64770508 269.86530273 108.64770508 269.18530273 C107.98770508 269.18530273 107.32770508 269.18530273 106.64770508 269.18530273 C106.64770508 268.52530273 106.64770508 267.86530273 106.64770508 267.18530273 C105.98770508 267.18530273 105.32770508 267.18530273 104.64770508 267.18530273 C104.64770508 266.52530273 104.64770508 265.86530273 104.64770508 265.18530273 C103.98770508 265.18530273 103.32770508 265.18530273 102.64770508 265.18530273 C102.64770508 264.52530273 102.64770508 263.86530273 102.64770508 263.18530273 C85.19430561 249.59414012 63.46349706 242.1485719 41.64770508 239.18530273 C41.64770508 238.52530273 41.64770508 237.86530273 41.64770508 237.18530273 C42.72407227 236.88237305 43.80043945 236.57944336 44.90942383 236.26733398 C54.02667147 233.66465042 62.86271685 230.77568923 71.64770508 227.18530273 C71.64770508 226.52530273 71.64770508 225.86530273 71.64770508 225.18530273 C72.22391602 225.06026367 72.80012695 224.93522461 73.39379883 224.80639648 C75.684997 224.17502645 77.59651112 223.32704917 79.71020508 222.24780273 C80.38180664 221.9087793 81.0534082 221.56975586 81.74536133 221.22045898 C83.87520927 220.09830352 83.87520927 220.09830352 86.64770508 218.18530273 C86.64770508 217.52530273 86.64770508 216.86530273 86.64770508 216.18530273 C87.24583008 215.89655273 87.84395508 215.60780273 88.46020508 215.31030273 C90.840983 214.13788248 90.840983 214.13788248 93.64770508 212.18530273 C93.64770508 211.52530273 93.64770508 210.86530273 93.64770508 210.18530273 C94.21489258 209.98936523 94.78208008 209.79342773 95.36645508 209.59155273 C98.57132929 207.61594534 100.20455701 204.8173506 102.14770508 201.68530273 C102.54280273 201.05599854 102.93790039 200.42669434 103.3449707 199.77832031 C111.98595869 185.71163734 114.15982717 168.64257922 110.96020508 152.37280273 C110.5619992 150.96525557 110.11985974 149.56979792 109.64770508 148.18530273 C109.31770508 147.16049805 108.98770508 146.13569336 108.64770508 145.07983398 C103.58520168 130.60840159 93.48482474 119.17521573 79.64770508 112.31030273 C77.32723773 111.24028162 74.99456234 110.19613155 72.64770508 109.18530273 C71.34446289 108.60329102 71.34446289 108.60329102 70.01489258 108.00952148 C49.20488447 99.56157149 27.0849364 100.64223522 5.08995152 100.77972698 C0.35082391 100.80501717 -4.38831777 100.8071041 -9.12750244 100.81182861 C-18.0694637 100.82417831 -27.01122543 100.85688952 -35.95309949 100.89722657 C-46.1468114 100.94219607 -56.34053368 100.96399414 -66.53432035 100.98400831 C-87.47375586 101.02563085 -108.41301273 101.09582424 -129.35229492 101.18530273 Z " fill="#116CEF" transform="translate(247.352294921875,-0.185302734375)"/>
<path d="M0 0 C21.04565385 0.02348644 39.32923213 2.46490557 55.46118164 17.31176758 C57.15649414 19.19067383 57.15649414 19.19067383 57.15649414 21.19067383 C57.81649414 21.19067383 58.47649414 21.19067383 59.15649414 21.19067383 C71.61360355 41.62593196 73.66876623 65.77697993 68.59399414 89.12817383 C65.97408722 99.73916175 60.97372935 111.39764058 53.15649414 119.19067383 C52.49649414 119.19067383 51.83649414 119.19067383 51.15649414 119.19067383 C51.15649414 119.85067383 51.15649414 120.51067383 51.15649414 121.19067383 C41.17999484 129.64674631 29.21022304 134.97798823 15.96899414 134.00317383 C7.61538174 132.82865329 0.55868231 129.95838184 -4.84350586 123.19067383 C-7.89527576 116.60191844 -8.2640201 111.0342135 -8.19995117 103.83349609 C-8.20199554 102.72202713 -8.20403992 101.61055817 -8.20614624 100.46540833 C-8.20914082 96.81246183 -8.19072249 93.15997248 -8.17163086 89.50708008 C-8.16857199 86.96500256 -8.16669684 84.42292337 -8.16595459 81.88084412 C-8.16136051 76.56583748 -8.14735705 71.25098602 -8.12475586 65.93603516 C-8.09577678 59.10719727 -8.08552108 52.27846336 -8.08107376 45.44957066 C-8.07752764 40.20730049 -8.06712077 34.96504905 -8.05519867 29.72279167 C-8.04948517 27.20326877 -8.04473006 24.68374351 -8.0409317 22.164217 C-8.0340972 18.6567988 -8.02048092 15.14947742 -8.00463867 11.64208984 C-8.00352081 10.59226929 -8.00240295 9.54244873 -8.00125122 8.46081543 C-7.99554108 7.51178848 -7.98983093 6.56276154 -7.98394775 5.5849762 C-7.98097309 4.75561334 -7.97799843 3.92625048 -7.97493362 3.07175541 C-7.67144424 -1.27198648 -3.44211219 0.02955558 0 0 Z " fill="#116CEF" transform="translate(230.843505859375,248.809326171875)"/>
<path d="M0 0 C18.24950574 -0.50470197 34.65834137 -0.14256028 49.25 12.1875 C61.29711672 23.66813788 64.53366205 38.47193606 64.97265625 54.59765625 C65.18392656 71.65124764 62.17247977 88.49726016 51 102 C50.34 102 49.68 102 49 102 C49 102.66 49 103.32 49 104 C34.66112557 116.38634685 18.12526669 117.78016663 0 117 C-1.58416185 115.41583815 -1.12598335 113.80807998 -1.12698364 111.61001587 C-1.12980347 110.66217728 -1.13262329 109.71433868 -1.13552856 108.73777771 C-1.13350433 107.68945267 -1.1314801 106.64112762 -1.12939453 105.56103516 C-1.13114685 104.46355453 -1.13289917 103.36607391 -1.13470459 102.2353363 C-1.13912644 98.58656255 -1.13618354 94.9378368 -1.1328125 91.2890625 C-1.13348554 88.76419058 -1.13445557 86.23931872 -1.13571167 83.71444702 C-1.13718917 78.41314011 -1.13512745 73.11185058 -1.13037109 67.81054688 C-1.12493406 61.6797485 -1.12668703 55.5489834 -1.1321975 49.41818583 C-1.13728165 43.52620772 -1.13674406 37.63423997 -1.13381577 31.74225998 C-1.13314718 29.23276134 -1.13397255 26.72326185 -1.13629532 24.21376419 C-1.13882698 20.70840437 -1.13497363 17.20310892 -1.12939453 13.69775391 C-1.13141876 12.65347733 -1.13344299 11.60920074 -1.13552856 10.53327942 C-1.13270874 9.57980118 -1.12988892 8.62632294 -1.12698364 7.64395142 C-1.12660662 6.81471476 -1.12622959 5.9854781 -1.12584114 5.13111305 C-1 3 -1 3 0 0 Z " fill="#126DEF" transform="translate(224,115)"/>
<path d="M0 0 C-0.33 0.99 -0.66 1.98 -1 3 C-3.97 3 -6.94 3 -10 3 C-10 3.66 -10 4.32 -10 5 C-14.95 5 -19.9 5 -25 5 C-25 5.66 -25 6.32 -25 7 C-78.13 7 -131.26 7 -186 7 C-186 6.01 -186 5.02 -186 4 C-185.18499779 3.99668985 -184.36999557 3.99337971 -183.53029633 3.98996925 C-163.63800975 3.90851141 -143.74579743 3.81634572 -123.85361481 3.71247292 C-114.23364325 3.66249379 -104.6136796 3.61605004 -94.99365234 3.578125 C-86.6022971 3.54503457 -78.21100593 3.50511118 -69.8197217 3.45720994 C-65.38255919 3.43211321 -60.94543827 3.41028372 -56.50822449 3.39665604 C-52.31886007 3.38368109 -48.12963951 3.36146631 -43.9403553 3.33261681 C-42.41516249 3.32365999 -40.8899466 3.31787923 -39.36472893 3.31578636 C-27.76546344 3.29704496 -16.64310139 2.12561877 -5.16248322 0.43483925 C-2 0 -2 0 0 0 Z " fill="#347DDD" transform="translate(304,394)"/>
<path d="M0 0 C33.85607837 -0.93631191 33.85607837 -0.93631191 46.625 10.3125 C47.305625 11.1478125 47.305625 11.1478125 48 12 C46.68 12.33 45.36 12.66 44 13 C43.505 12.01 43.505 12.01 43 11 C41.00708223 10.21655744 38.97948177 9.51983635 36.9375 8.875 C35.83277344 8.52179688 34.72804688 8.16859375 33.58984375 7.8046875 C32.73519531 7.53914063 31.88054687 7.27359375 31 7 C31 5.68 31 4.36 31 3 C16.15 2.505 16.15 2.505 1 2 C1 39.62 1 77.24 1 116 C0.34 116 -0.32 116 -1 116 C-1.02334921 101.31844582 -1.04098914 86.63689409 -1.05181217 71.95532513 C-1.05697082 65.13858609 -1.06400534 58.32185859 -1.07543945 51.50512695 C-1.08646225 44.93048439 -1.0922793 38.35585069 -1.09487724 31.7811985 C-1.0967294 29.2689069 -1.10034603 26.75661597 -1.10573006 24.24432945 C-1.11295573 20.73407939 -1.11399029 17.22387932 -1.11352539 13.71362305 C-1.11712067 12.66777542 -1.12071594 11.6219278 -1.12442017 10.54438782 C-1.1230455 9.58946442 -1.12167084 8.63454102 -1.12025452 7.65068054 C-1.12117631 6.82014506 -1.1220981 5.98960958 -1.12304783 5.13390636 C-1 3 -1 3 0 0 Z " fill="#8EADDA" transform="translate(224,115)"/>
<path d="M0 0 C0.9379541 0.00080566 1.8759082 0.00161133 2.84228516 0.00244141 C4.26855225 0.0036499 4.26855225 0.0036499 5.72363281 0.00488281 C15.75863749 0.0914061 25.58041751 0.99848553 35.15478516 4.18994141 C35.15478516 4.51994141 35.15478516 4.84994141 35.15478516 5.18994141 C29.54478516 4.85994141 23.93478516 4.52994141 18.15478516 4.18994141 C18.15478516 3.52994141 18.15478516 2.86994141 18.15478516 2.18994141 C10.23478516 2.18994141 2.31478516 2.18994141 -5.84521484 2.18994141 C-5.84521484 39.47994141 -5.84521484 76.76994141 -5.84521484 115.18994141 C-6.50521484 115.18994141 -7.16521484 115.18994141 -7.84521484 115.18994141 C-7.8685447 100.34346191 -7.88619445 85.49698484 -7.89702702 70.65049076 C-7.90218979 63.75746613 -7.90923213 56.86445288 -7.9206543 49.97143555 C-7.93166185 43.32547976 -7.93749107 36.67953272 -7.94009209 30.03356743 C-7.94194686 27.49171194 -7.94556845 24.94985714 -7.9509449 22.40800667 C-7.95815152 18.86142679 -7.95920595 15.31489651 -7.95874023 11.76831055 C-7.96233551 10.70592163 -7.96593079 9.64353271 -7.96963501 8.5489502 C-7.96826035 7.58836197 -7.96688568 6.62777374 -7.96546936 5.63807678 C-7.96639115 4.79832337 -7.96731295 3.95856997 -7.96826267 3.09336948 C-7.68576744 -1.27655212 -3.46122589 0.02874242 0 0 Z " fill="#76AEDC" transform="translate(230.84521484375,248.81005859375)"/>
<path d="M0 0 C10.50985207 10.50985207 10.98015735 42.0877123 11.09765625 56.3515625 C11.09114573 58.10940201 11.07942667 59.86722993 11.0625 61.625 C11.05798828 62.53378906 11.05347656 63.44257813 11.04882812 64.37890625 C11.03721178 66.58601089 11.02088168 68.79296697 11 71 C10.34 71 9.68 71 9 71 C7.73485581 62.20047035 6.76408379 53.68603156 7.02734375 44.76953125 C7.00030504 42.03089606 6.5500808 39.67423896 6 37 C5.93540958 35.23022239 5.91388935 33.45829848 5.9375 31.6875 C5.94652344 30.80449219 5.95554687 29.92148438 5.96484375 29.01171875 C5.97644531 28.34785156 5.98804688 27.68398437 6 27 C5.01 27 4.02 27 3 27 C2.67 25.02 2.34 23.04 2 21 C1.67 21 1.34 21 1 21 C0.85714286 13.57142857 0.85714286 13.57142857 2 10 C1.34 10 0.68 10 0 10 C0 6.7 0 3.4 0 0 Z " fill="#3580DB" transform="translate(489,181)"/>
<path d="M0 0 C0.66 0.33 1.32 0.66 2 1 C2 1.99 2 2.98 2 4 C1.401875 4.268125 0.80375 4.53625 0.1875 4.8125 C-2.00443888 5.86831322 -2.00443888 5.86831322 -3.4375 7.4375 C-5 9 -5 9 -7.375 10.375 C-10.13718502 11.94631891 -10.13718502 11.94631891 -12.5 14.5 C-15 17 -15 17 -17.625 18.5 C-20.19375651 19.86258811 -20.19375651 19.86258811 -21.5 22.625 C-23 25 -23 25 -25.6875 25.8125 C-26.450625 25.874375 -27.21375 25.93625 -28 26 C-28.33 26.99 -28.66 27.98 -29 29 C-29.66 29 -30.32 29 -31 29 C-31 29.66 -31 30.32 -31 31 C-31.66 31 -32.32 31 -33 31 C-33.268125 31.928125 -33.53625 32.85625 -33.8125 33.8125 C-35.48130584 38.29192621 -36.94329361 39.39616778 -41.0625 41.75 C-42.5165625 42.36875 -42.5165625 42.36875 -44 43 C-44.66 42.67 -45.32 42.34 -46 42 C-44.38405168 39.95880212 -42.7143618 37.95927063 -41 36 C-40.34 36 -39.68 36 -39 36 C-38.61328125 35.12601563 -38.61328125 35.12601563 -38.21875 34.234375 C-36.90165983 31.8197097 -35.44911616 30.18259823 -33.5 28.25 C-32.8915625 27.63640625 -32.283125 27.0228125 -31.65625 26.390625 C-30 25 -30 25 -28 25 C-28 24.34 -28 23.68 -28 23 C-27.34 23 -26.68 23 -26 23 C-26 22.34 -26 21.68 -26 21 C-24.5390625 19.4921875 -24.5390625 19.4921875 -22.625 17.875 C-21.99851562 17.33617188 -21.37203125 16.79734375 -20.7265625 16.2421875 C-19 15 -19 15 -17 15 C-17 14.34 -17 13.68 -17 13 C-15.54711914 11.68725586 -15.54711914 11.68725586 -13.53515625 10.21484375 C-12.45911133 9.41916992 -12.45911133 9.41916992 -11.36132812 8.60742188 C-10.60271484 8.05634766 -9.84410156 7.50527344 -9.0625 6.9375 C-7.57385356 5.84294442 -6.08555398 4.74791688 -4.59765625 3.65234375 C-3.93258057 3.16757568 -3.26750488 2.68280762 -2.58227539 2.18334961 C-1.04410017 1.09168909 -1.04410017 1.09168909 0 0 Z " fill="#4989D6" transform="translate(108,44)"/>
<path d="M0 0 C0.66 0.99 1.32 1.98 2 3 C1.125 6.1875 1.125 6.1875 0 9 C-0.66 9 -1.32 9 -2 9 C-2.11472656 9.55042969 -2.22945313 10.10085938 -2.34765625 10.66796875 C-5.35120212 21.40519562 -12.69872484 30.97038843 -19 40 C-19.68618408 40.99265869 -19.68618408 40.99265869 -20.38623047 42.00537109 C-21.56418851 43.6891955 -22.77890876 45.34718846 -24 47 C-24.33 47 -24.66 47 -25 47 C-25 45.02 -25 43.04 -25 41 C-24.34 41 -23.68 41 -23 41 C-23 40.34 -23 39.68 -23 39 C-22.34 39 -21.68 39 -21 39 C-21.33 36.69 -21.66 34.38 -22 32 C-20.35 32.33 -18.7 32.66 -17 33 C-17 32.01 -17 31.02 -17 30 C-16.34 30 -15.68 30 -15 30 C-14.566875 29.1028125 -14.566875 29.1028125 -14.125 28.1875 C-13 26 -13 26 -11 23 C-10.40396725 20.89271567 -10.40396725 20.89271567 -10 18.625 C-8.7413336 12.64149356 -7.02804788 8.6993892 -3 4 C-2.01 4.33 -1.02 4.66 0 5 C0 3.35 0 1.7 0 0 Z " fill="#3178DC" transform="translate(476,350)"/>
<path d="M0 0 C17.49 0 34.98 0 53 0 C53 0.66 53 1.32 53 2 C54.8253125 1.87625 54.8253125 1.87625 56.6875 1.75 C63.02717847 1.73988887 69.2241197 3.43007707 75 6 C75.495 7.485 75.495 7.485 76 9 C74.98421875 8.73445313 73.9684375 8.46890625 72.921875 8.1953125 C54.53858742 3.45203408 36.73716915 1.88148582 17.8125 1.4375 C16.08006986 1.39420951 14.34764786 1.35059226 12.61523438 1.30664062 C8.41024049 1.20066129 4.20516143 1.09909867 0 1 C0 0.67 0 0.34 0 0 Z " fill="#1764C9" transform="translate(241,99)"/>
<path d="M0 0 C0.33 0 0.66 0 1 0 C1 3.96 1 7.92 1 12 C2.19625 11.938125 3.3925 11.87625 4.625 11.8125 C14.62616808 11.84399974 25.77144071 14.06217517 34 20 C36.3123829 22.49811647 38.22796732 25.09703589 40 28 C39.67 28.66 39.34 29.32 39 30 C38.34 30 37.68 30 37 30 C37 29.01 37 28.02 37 27 C36.34 27 35.68 27 35 27 C35 25.68 35 24.36 35 23 C33.68 22.67 32.36 22.34 31 22 C31 21.34 31 20.68 31 20 C30.278125 20.061875 29.55625 20.12375 28.8125 20.1875 C26 20 26 20 23.96484375 18.55859375 C19.6867314 16.3096256 15.51862298 16.22045422 10.75 15.875 C8.93199268 15.73027037 7.11426046 15.58202716 5.296875 15.4296875 C4.49604492 15.37022949 3.69521484 15.31077148 2.87011719 15.24951172 C1 15 1 15 0 14 C-0.07271741 11.64686445 -0.08370868 9.29166332 -0.0625 6.9375 C-0.05347656 5.64714844 -0.04445313 4.35679688 -0.03515625 3.02734375 C-0.02355469 2.02832031 -0.01195313 1.02929688 0 0 Z " fill="#4887D6" transform="translate(117,101)"/>
<path d="M0 0 C10.83515015 0.12330185 21.64939416 1.87085693 32.3125 3.6875 C33.02349854 3.80585205 33.73449707 3.9242041 34.46704102 4.04614258 C37.943285 4.66547582 40.95144042 5.36933593 44 7.1875 C43.67 7.8475 43.34 8.5075 43 9.1875 C40.18661171 8.7131323 37.37436287 8.23325381 34.5625 7.75 C33.35883789 7.54793945 33.35883789 7.54793945 32.13085938 7.34179688 C26.11328125 6.30078125 26.11328125 6.30078125 25 5.1875 C22.93221142 4.88785594 20.8557051 4.64795389 18.77734375 4.43359375 C16.88725586 4.23540039 16.88725586 4.23540039 14.95898438 4.03320312 C13.61849918 3.8970409 12.27800426 3.76097444 10.9375 3.625 C9.59305707 3.48542894 8.24865537 3.34546014 6.90429688 3.20507812 C3.6032506 2.86195862 0.30183269 2.52295333 -3 2.1875 C-3 2.8475 -3 3.5075 -3 4.1875 C-3.99 4.1875 -4.98 4.1875 -6 4.1875 C-4.61026007 0.01828021 -4.17190161 0.03523566 0 0 Z " fill="#4F91DD" transform="translate(262,-0.1875)"/>
<path d="M0 0 C33.85607837 -0.93631191 33.85607837 -0.93631191 46.625 10.3125 C47.305625 11.1478125 47.305625 11.1478125 48 12 C46.68 12.33 45.36 12.66 44 13 C43.505 12.01 43.505 12.01 43 11 C41.00708223 10.21655744 38.97948177 9.51983635 36.9375 8.875 C35.83277344 8.52179688 34.72804688 8.16859375 33.58984375 7.8046875 C32.73519531 7.53914063 31.88054687 7.27359375 31 7 C31 5.68 31 4.36 31 3 C20.77 2.67 10.54 2.34 0 2 C0 1.34 0 0.68 0 0 Z " fill="#5692DA" transform="translate(224,115)"/>
<path d="M0 0 C3.63 0.33 7.26 0.66 11 1 C10.67 2.32 10.34 3.64 10 5 C12.31 5.33 14.62 5.66 17 6 C17 6.99 17 7.98 17 9 C18.07314453 9.16822266 18.07314453 9.16822266 19.16796875 9.33984375 C22.19115998 10.04456005 24.56322688 11.13287798 27.3125 12.5625 C28.19550781 13.01753906 29.07851562 13.47257812 29.98828125 13.94140625 C30.65214844 14.29074219 31.31601563 14.64007813 32 15 C32 15.66 32 16.32 32 17 C32.639375 17.12375 33.27875 17.2475 33.9375 17.375 C34.9584375 17.684375 34.9584375 17.684375 36 18 C36.495 18.99 36.495 18.99 37 20 C35.68 20 34.36 20 33 20 C33 19.34 33 18.68 33 18 C32.26426758 17.87778076 31.52853516 17.75556152 30.77050781 17.62963867 C28.0874275 17.01986919 26.09498671 16.2028192 23.671875 14.92578125 C22.87563721 14.50804443 22.07939941 14.09030762 21.2590332 13.65991211 C20.43105225 13.21526611 19.60307129 12.77062012 18.75 12.3125 C17.90332764 11.86205322 17.05665527 11.41160645 16.18432617 10.94750977 C4.50763271 4.66837377 4.50763271 4.66837377 0 1 C0 0.67 0 0.34 0 0 Z " fill="#3E7FD8" transform="translate(112,458)"/>
<path d="M0 0 C7.88123239 -0.27653447 18.82053098 -0.58973451 26 3 C28.6936694 3.02047306 31.37050787 2.99473381 34.0625 2.9375 C40.36015568 2.85804267 45.9089581 3.22806054 52 5 C52 5.66 52 6.32 52 7 C34.23130342 7.50687249 17.353434 4.51106145 0 1 C0 0.67 0 0.34 0 0 Z " fill="#347DD7" transform="translate(192,493)"/>
<path d="M0 0 C-0.33 0.99 -0.66 1.98 -1 3 C-3.97 3 -6.94 3 -10 3 C-10 3.66 -10 4.32 -10 5 C-24.45263801 6.37180202 -38.93568287 6.11178479 -53.4375 6.0625 C-56.01887934 6.05747502 -58.60025963 6.05291388 -61.18164062 6.04882812 C-67.45444802 6.03790146 -73.7272195 6.02124244 -80 6 C-80 5.67 -80 5.34 -80 5 C-78.98855675 4.9845388 -78.98855675 4.9845388 -77.9566803 4.96876526 C-70.96556418 4.86094231 -63.97458333 4.74632557 -56.98364258 4.62768555 C-54.37136656 4.58425876 -51.75906072 4.54258962 -49.14672852 4.50268555 C-45.40111281 4.44516993 -41.65564831 4.38142236 -37.91015625 4.31640625 C-36.73413345 4.29969376 -35.55811066 4.28298126 -34.34645081 4.26576233 C-33.26540573 4.24581711 -32.18436066 4.22587189 -31.07055664 4.20532227 C-30.11347305 4.18977798 -29.15638947 4.1742337 -28.17030334 4.15821838 C-26.02137306 4.2393139 -26.02137306 4.2393139 -25 3 C-22.45721316 2.62065651 -19.92809363 2.29126202 -17.375 2 C-15.96607434 1.83393878 -14.55721939 1.66727651 -13.1484375 1.5 C-12.45717773 1.41878906 -11.76591797 1.33757812 -11.05371094 1.25390625 C-9.06621707 1.00818661 -7.08366171 0.72349428 -5.1015625 0.4375 C-2 0 -2 0 0 0 Z " fill="#1865CC" transform="translate(304,394)"/>
<path d="M0 0 C0.99 0.33 1.98 0.66 3 1 C3 1.99 3 2.98 3 4 C3.66 4 4.32 4 5 4 C7.6203071 10.01323047 8.38221591 14.58126446 8.07421875 21.09375 C8.04777786 21.92588013 8.02133698 22.75801025 7.99409485 23.61535645 C7.90709695 26.2443654 7.79768851 28.87187143 7.6875 31.5 C7.62416129 33.29421886 7.56229808 35.08849045 7.50195312 36.8828125 C7.3516808 41.25600283 7.18132023 45.6279914 7 50 C5.515 50.495 5.515 50.495 4 51 C4.10828125 49.58460938 4.10828125 49.58460938 4.21875 48.140625 C5.43099736 31.37120315 4.8857501 16.253262 0 0 Z " fill="#3C7FDD" transform="translate(366,284)"/>
<path d="M0 0 C1.98 0 3.96 0 6 0 C5.34 0.33 4.68 0.66 4 1 C4 1.66 4 2.32 4 3 C3.34 3 2.68 3 2 3 C2 3.66 2 4.32 2 5 C-2.47058824 9 -2.47058824 9 -5 9 C-5 9.66 -5 10.32 -5 11 C-6.8984375 12.7265625 -6.8984375 12.7265625 -9.375 14.625 C-10.18710937 15.25664062 -10.99921875 15.88828125 -11.8359375 16.5390625 C-14 18 -14 18 -16 18 C-16 18.66 -16 19.32 -16 20 C-17.78398614 21.28006797 -19.62853906 22.47660351 -21.5 23.625 C-23.03140625 24.57246094 -23.03140625 24.57246094 -24.59375 25.5390625 C-25.3878125 26.02117187 -26.181875 26.50328125 -27 27 C-27.66 26.34 -28.32 25.68 -29 25 C-28 23 -28 23 -26.15234375 22.3671875 C-25.05599609 22.12355469 -25.05599609 22.12355469 -23.9375 21.875 C-23.20402344 21.70742188 -22.47054688 21.53984375 -21.71484375 21.3671875 C-21.14894531 21.24601562 -20.58304687 21.12484375 -20 21 C-20 20.34 -20 19.68 -20 19 C-19.34 19 -18.68 19 -18 19 C-17.67 17.68 -17.34 16.36 -17 15 C-15.68 15 -14.36 15 -13 15 C-13 14.34 -13 13.68 -13 13 C-12.34 13 -11.68 13 -11 13 C-10.67 11.35 -10.34 9.7 -10 8 C-6.535 7.505 -6.535 7.505 -3 7 C-3 6.01 -3 5.02 -3 4 C-2.34 4 -1.68 4 -1 4 C-0.67 2.68 -0.34 1.36 0 0 Z " fill="#4080D4" transform="translate(414,432)"/>
<path d="M0 0 C1.79244141 0.01740234 1.79244141 0.01740234 3.62109375 0.03515625 C5.41740234 0.04869141 5.41740234 0.04869141 7.25 0.0625 C8.17683594 0.07410156 9.10367188 0.08570313 10.05859375 0.09765625 C2.83278961 6.04004505 -7.23326054 8.97909865 -16.00390625 12.03515625 C-17.81568359 12.66744141 -17.81568359 12.66744141 -19.6640625 13.3125 C-22.94347715 14.09815238 -24.75435407 14.06762865 -27.94140625 13.09765625 C-27.94140625 12.76765625 -27.94140625 12.43765625 -27.94140625 12.09765625 C-26.29140625 12.09765625 -24.64140625 12.09765625 -22.94140625 12.09765625 C-22.94140625 11.43765625 -22.94140625 10.77765625 -22.94140625 10.09765625 C-20.81703577 9.59498831 -18.69188899 9.09560015 -16.56640625 8.59765625 C-15.38304687 8.31921875 -14.1996875 8.04078125 -12.98046875 7.75390625 C-9.94140625 7.09765625 -9.94140625 7.09765625 -7.94140625 7.09765625 C-7.94140625 6.43765625 -7.94140625 5.77765625 -7.94140625 5.09765625 C-7.28140625 5.09765625 -6.62140625 5.09765625 -5.94140625 5.09765625 C-5.63203125 4.45828125 -5.32265625 3.81890625 -5.00390625 3.16015625 C-3.43469154 0.11403358 -3.43469154 0.11403358 0 0 Z " fill="#4485D9" transform="translate(347.94140625,474.90234375)"/>
<path d="M0 0 C1.89213369 2.38573379 3.02391783 4.07175348 4 7 C3.2575 7.556875 2.515 8.11375 1.75 8.6875 C-1.03429681 10.8758014 -1.03429681 10.8758014 -3 13.5 C-5.10915188 16.13643985 -7.25207234 18.04752508 -10 20 C-10.66 20 -11.32 20 -12 20 C-12.33 21.32 -12.66 22.64 -13 24 C-14.65 24 -16.3 24 -18 24 C-16.625 22 -16.625 22 -15 20 C-14.34 20 -13.68 20 -13 20 C-13 19.34 -13 18.68 -13 18 C-12.319375 17.360625 -11.63875 16.72125 -10.9375 16.0625 C-6.30548453 11.65611279 -2.84550821 5.69101642 0 0 Z " fill="#186FE2" transform="translate(354,192)"/>
<path d="M0 0 C0.66 0 1.32 0 2 0 C2 0.66 2 1.32 2 2 C2.66 2.33 3.32 2.66 4 3 C7.65796742 5.62623302 9.89580655 8.01310714 12 12 C12.33 11.67 12.66 11.34 13 11 C14.67542976 11.28604898 16.34385343 11.61781233 18 12 C19.04423719 15.39377086 19 18.46829831 19 22 C19.43941523 24.26566343 19.43941523 24.26566343 20 26 C16.74483572 22.83525695 13.67991207 19.67247209 11 16 C11 15.34 11 14.68 11 14 C10.34 14 9.68 14 9 14 C7.5760131 12.28480923 6.2336784 10.5012088 4.9375 8.6875 C3.86822266 7.20830078 3.86822266 7.20830078 2.77734375 5.69921875 C1 3 1 3 0 0 Z " fill="#1469E5" transform="translate(43,389)"/>
<path d="M0 0 C-0.99 0.33 -1.98 0.66 -3 1 C-2.67 1.99 -2.34 2.98 -2 4 C-2.66 4.66 -3.32 5.32 -4 6 C-3.34 6.33 -2.68 6.66 -2 7 C-2 7.66 -2 8.32 -2 9 C-7.91492272 8.54775239 -13.35199888 7.8417395 -19 6 C-15.80797272 2.20258823 -13.18489906 1.20268186 -8.375 0.1875 C-7.22773438 -0.06644531 -6.08046875 -0.32039062 -4.8984375 -0.58203125 C-2 -1 -2 -1 0 0 Z " fill="#1668DC" transform="translate(306,233)"/>
<path d="M0 0 C1 2 1 2 0.25 4.9375 C-0.97539184 7.93971002 -1.75585726 8.84217044 -4 11 C-5.42768778 13.28842373 -6.70433574 15.63206188 -8 18 C-8.66 18 -9.32 18 -10 18 C-11.61064629 21.65079826 -12.44894091 25.0507432 -13 29 C-13.99 29 -14.98 29 -16 29 C-16 29.99 -16 30.98 -16 32 C-16.99 32 -17.98 32 -19 32 C-19 32.99 -19 33.98 -19 35 C-19.66 35 -20.32 35 -21 35 C-16.11108907 22.22943361 -7.99397874 10.99172076 0 0 Z " fill="#5B94D8" transform="translate(49,102)"/>
<path d="M0 0 C0.99 0.495 0.99 0.495 2 1 C2.44332642 3.31804663 2.7814034 5.65674091 3.0625 8 C3.22405132 12.32759678 3.22405132 12.32759678 5 16 C5.21168488 18.24621176 5.36915709 20.49763282 5.5 22.75 C5.74478645 26.92885432 6.06472373 30.91596027 7 35 C5.515 35.495 5.515 35.495 4 36 C1.61766251 23.92349677 -0.23661393 12.35650531 0 0 Z " fill="#478ADD" transform="translate(0,264)"/>
<path d="M0 0 C-0.33 0.99 -0.66 1.98 -1 3 C-2.14339844 3.06058594 -3.28679687 3.12117187 -4.46484375 3.18359375 C-5.95574305 3.26798428 -7.44662775 3.35263302 -8.9375 3.4375 C-10.06961914 3.49647461 -10.06961914 3.49647461 -11.22460938 3.55664062 C-14.91944187 3.44038024 -14.91944187 3.44038024 -18 5 C-20.69654854 5.07319621 -23.36691458 5.09242537 -26.0625 5.0625 C-26.82111328 5.05798828 -27.57972656 5.05347656 -28.36132812 5.04882812 C-30.24091871 5.0370068 -32.12046899 5.01907078 -34 5 C-34 4.34 -34 3.68 -34 3 C-22.65646801 1.11551001 -11.50878174 -0.19181303 0 0 Z " fill="#3280D6" transform="translate(241,0)"/>
<path d="M0 0 C0.33 0 0.66 0 1 0 C1.9116122 10.58483058 1.9116122 10.58483058 -0.23046875 13.91015625 C-2.84611357 16.12538137 -4.55742752 17 -8 17 C-8.103125 17.61875 -8.20625 18.2375 -8.3125 18.875 C-9 21 -9 21 -12 23 C-12 23.99 -12 24.98 -12 26 C-13.98 26 -15.96 26 -18 26 C-17.67 25.34 -17.34 24.68 -17 24 C-16.34 24 -15.68 24 -15 24 C-15 23.34 -15 22.68 -15 22 C-14.34 22 -13.68 22 -13 22 C-13 21.34 -13 20.68 -13 20 C-12.34 20 -11.68 20 -11 20 C-10.34 18.35 -9.68 16.7 -9 15 C-8.34 15 -7.68 15 -7 15 C-6.72414063 14.28457031 -6.44828125 13.56914062 -6.1640625 12.83203125 C-5.01751478 10.04261145 -3.73772885 7.37709642 -2.375 4.6875 C-1.92898438 3.80449219 -1.48296875 2.92148437 -1.0234375 2.01171875 C-0.68570312 1.34785156 -0.34796875 0.68398438 0 0 Z " fill="#3D7FE2" transform="translate(365,347)"/>
<path d="M0 0 C0.33 0 0.66 0 1 0 C0.70161942 13.29149877 -3.88139069 25.46830278 -12 36 C-12.99 36.495 -12.99 36.495 -14 37 C-13.45276317 33.62537285 -12.9451 31.91765 -11 29 C-10.34 29 -9.68 29 -9 29 C-8.896875 28.484375 -8.79375 27.96875 -8.6875 27.4375 C-8 25 -8 25 -6.5 21.6875 C-5.01802555 18.04431282 -4.46595182 14.88293185 -4 11 C-3.67 10.67 -3.34 10.34 -3 10 C-2.63239269 7.67182036 -2.29758419 5.3381615 -2 3 C-1.34 3 -0.68 3 0 3 C0 2.01 0 1.02 0 0 Z " fill="#588ED4" transform="translate(299,328)"/>
<path d="M0 0 C0.66 0.99 1.32 1.98 2 3 C1.125 6.1875 1.125 6.1875 0 9 C-0.66 9 -1.32 9 -2 9 C-2.12246094 9.57234375 -2.24492187 10.1446875 -2.37109375 10.734375 C-3.02762868 13.09953191 -3.93723512 15.07206797 -5.0625 17.25 C-5.42472656 17.95640625 -5.78695313 18.6628125 -6.16015625 19.390625 C-6.43730469 19.92171875 -6.71445312 20.4528125 -7 21 C-7.99 21 -8.98 21 -10 21 C-9.15693632 13.83395872 -7.71256028 9.49798699 -3 4 C-2.01 4.33 -1.02 4.66 0 5 C0 3.35 0 1.7 0 0 Z " fill="#0E69E0" transform="translate(476,350)"/>
<path d="M0 0 C28.4137744 -0.52874187 28.4137744 -0.52874187 42 4 C42 4.33 42 4.66 42 5 C36.39 4.67 30.78 4.34 25 4 C25 3.34 25 2.68 25 2 C17.08 2 9.16 2 1 2 C0.67 1.34 0.34 0.68 0 0 Z " fill="#3978C7" transform="translate(224,249)"/>
<path d="M0 0 C0.66 0 1.32 0 2 0 C2.46897007 13.91277865 1.0743599 27.24817079 -1 41 C-1.33 41 -1.66 41 -2 41 C-2.14109129 31.67719719 -1.72274221 22.48059748 -1 13.1875 C-0.85691406 11.27227539 -0.85691406 11.27227539 -0.7109375 9.31835938 C-0.47824311 6.21188922 -0.24120375 3.10581899 0 0 Z " fill="#4E8EDA" transform="translate(498,254)"/>
<path d="M0 0 C0.33 0 0.66 0 1 0 C1.18603535 4.0927776 0.84865614 6.41143221 -1 10 C-1.165 11.175625 -1.33 12.35125 -1.5 13.5625 C-2 17 -2 17 -4 20 C-4.66 20 -5.32 20 -6 20 C-6.33 22.97 -6.66 25.94 -7 29 C-7.66 29 -8.32 29 -9 29 C-9 29.66 -9 30.32 -9 31 C-9.66 31 -10.32 31 -11 31 C-9.44618141 23.76147923 -7.41425184 17.23465111 -4.20703125 10.55859375 C-2.57937674 7.1083876 -1.28676729 3.5894035 0 0 Z " fill="#397ED2" transform="translate(22,147)"/>
<path d="M0 0 C2.49879986 0.9654454 3.74617273 1.53307147 5.046875 3.92578125 C8.0761867 14.20861152 7.33084597 24.47205776 6 35 C5.67 35 5.34 35 5 35 C4.95101563 33.80503906 4.90203125 32.61007813 4.8515625 31.37890625 C4.34499822 19.56026627 4.34499822 19.56026627 2 8 C1.62191188 6.47993145 1.24683214 4.95911095 0.875 3.4375 C0.58625 2.303125 0.2975 1.16875 0 0 Z " fill="#3C7ED1" transform="translate(354,140)"/>
<path d="M0 0 C-3.06762668 3.24182467 -6.50236688 5.29271224 -10.3125 7.5625 C-10.96412109 7.96146484 -11.61574219 8.36042969 -12.28710938 8.77148438 C-16.09627722 11.05545989 -19.69815028 12.76613613 -24 14 C-23.67 12.35 -23.34 10.7 -23 9 C-21.35 9.33 -19.7 9.66 -18 10 C-17.67 8.68 -17.34 7.36 -17 6 C-15.948125 5.7525 -14.89625 5.505 -13.8125 5.25 C-10.94957597 4.45506335 -9.78300432 3.82433683 -7.375 1.875 C-4.63674544 -0.28677991 -3.39682043 -0.38820805 0 0 Z " fill="#4888D5" transform="translate(386,459)"/>
<path d="M0 0 C3.81832118 3.81832118 4.125 8.7642297 4.125 13.9375 C4.09334369 15.29193765 4.05525226 16.64631959 4 18 C4.33 18 4.66 18 5 18 C5 20.97 5 23.94 5 27 C4.34 27 3.68 27 3 27 C2.67 25.02 2.34 23.04 2 21 C1.67 21 1.34 21 1 21 C0.85714286 13.57142857 0.85714286 13.57142857 2 10 C1.34 10 0.68 10 0 10 C0 6.7 0 3.4 0 0 Z " fill="#0F66D9" transform="translate(489,181)"/>
<path d="M0 0 C5.28 0 10.56 0 16 0 C13.24524562 1.83650292 11.63149045 2.5025707 8.5078125 3.2890625 C7.63769531 3.50820313 6.76757812 3.72734375 5.87109375 3.953125 C4.96488281 4.17484375 4.05867188 4.3965625 3.125 4.625 C2.22652344 4.85445313 1.32804687 5.08390625 0.40234375 5.3203125 C-0.47035156 5.536875 -1.34304688 5.7534375 -2.2421875 5.9765625 C-3.0347998 6.17330566 -3.82741211 6.37004883 -4.64404297 6.57275391 C-7.14326716 7.02598109 -9.46548177 7.07360272 -12 7 C-9.47176247 5.68531648 -6.95922857 4.57663535 -4.3125 3.5 C-0.931541 2.38833467 -0.931541 2.38833467 0 0 Z " fill="#508AD3" transform="translate(305,489)"/>
<path d="M0 0 C0.33 0 0.66 0 1 0 C0.67 8.91 0.34 17.82 0 27 C0.66 27.33 1.32 27.66 2 28 C1.34 28 0.68 28 0 28 C0 28.66 0 29.32 0 30 C-0.99 30 -1.98 30 -3 30 C-2.57227835 19.86975045 -2.01291888 9.96687989 0 0 Z " fill="#649ADA" transform="translate(3,207)"/>
<path d="M0 0 C5.19453651 1.41669178 8.66182883 4.92108191 12 9 C12 9.66 12 10.32 12 11 C12.5775 11.2475 13.155 11.495 13.75 11.75 C16.3002997 13.16683317 18.01785701 14.87627537 20 17 C19.67 17.99 19.34 18.98 19 20 C17.02929482 18.02929482 15.05881822 16.05837238 13.08984375 14.0859375 C11.52779846 12.52681192 9.95427375 10.97917199 8.375 9.4375 C5.4305026 6.41551582 2.71020116 3.2317519 0 0 Z " fill="#558BD2" transform="translate(63,415)"/>
<path d="M0 0 C10.55808656 3.07517084 10.55808656 3.07517084 15 5 C12.06171403 7.50298434 9.82097239 8.46930939 6 9 C6 8.01 6 7.02 6 6 C5.01 6.33 4.02 6.66 3 7 C2.67 5.35 2.34 3.7 2 2 C1.01 1.67 0.02 1.34 -1 1 C-0.67 0.67 -0.34 0.34 0 0 Z " fill="#3982DE" transform="translate(334,15)"/>
<path d="M0 0 C0.8971875 0.309375 0.8971875 0.309375 1.8125 0.625 C1.8125 1.285 1.8125 1.945 1.8125 2.625 C1.1525 2.625 0.4925 2.625 -0.1875 2.625 C-0.44273437 3.20765625 -0.69796875 3.7903125 -0.9609375 4.390625 C-2.30491087 6.83888223 -3.80560296 8.44243248 -5.8125 10.375 C-6.75996094 11.29539062 -6.75996094 11.29539062 -7.7265625 12.234375 C-8.20867187 12.69328125 -8.69078125 13.1521875 -9.1875 13.625 C-10.25 11.75 -10.25 11.75 -11.1875 9.625 C-10.8575 8.965 -10.5275 8.305 -10.1875 7.625 C-8.2075 8.12 -8.2075 8.12 -6.1875 8.625 C-6.0328125 6.954375 -6.0328125 6.954375 -5.875 5.25 C-5.648125 4.05375 -5.42125 2.8575 -5.1875 1.625 C-2.1875 -0.375 -2.1875 -0.375 0 0 Z " fill="#4888DB" transform="translate(431.1875,417.375)"/>
<path d="M0 0 C6.46684143 0.59682298 12.31293197 2.12454483 18.5 4.0625 C19.87671875 4.48499023 19.87671875 4.48499023 21.28125 4.91601562 C23.52272203 5.6048013 25.76215031 6.29955305 28 7 C26.10839844 8.04833984 26.10839844 8.04833984 24 9 C22.265625 8.2265625 22.265625 8.2265625 20 7 C17.24674025 6.39737889 14.52362135 5.85523833 11.75 5.375 C11.00492187 5.2409375 10.25984375 5.106875 9.4921875 4.96875 C7.662437 4.64033324 5.83134246 4.3194202 4 4 C4 3.01 4 2.02 4 1 C2.68 0.67 1.36 0.34 0 0 Z " fill="#508FD6" transform="translate(306,7)"/>
<path d="M0 0 C1.65 0 3.3 0 5 0 C5 0.66 5 1.32 5 2 C-0.40102673 6.59308625 -6.17613931 10.08453033 -13 12 C-13.99 11.67 -14.98 11.34 -16 11 C-15.443125 10.731875 -14.88625 10.46375 -14.3125 10.1875 C-11.9160243 9.00101623 -11.9160243 9.00101623 -9.4375 7.375 C-7 6 -7 6 -4 6 C-4.33 5.01 -4.66 4.02 -5 3 C-3.68 3 -2.36 3 -1 3 C-0.67 2.01 -0.34 1.02 0 0 Z " fill="#4788D5" transform="translate(268,217)"/>
<path d="M0 0 C3.30531048 1.65265524 3.83309215 4.96191541 5.10546875 8.29296875 C6.57763792 12.74804837 7.76746188 16.95343498 6.0625 21.5 C5.711875 21.995 5.36125 22.49 5 23 C4.896875 22.071875 4.79375 21.14375 4.6875 20.1875 C3.96516098 16.83847362 3.40619812 16.1969635 1 14 C1 13.01 1 12.02 1 11 C1.66 11 2.32 11 3 11 C2.690625 10.113125 2.38125 9.22625 2.0625 8.3125 C1.1709329 5.53290845 0.50622993 2.86863625 0 0 Z " fill="#3E85DD" transform="translate(280,137)"/>
<path d="M0 0 C0 0.33 0 0.66 0 1 C-9.63862168 3.52816306 -19.11436703 3.18269137 -29 3 C-28.67 2.34 -28.34 1.68 -28 1 C-18.6587308 0.38673965 -9.36749815 -0.1820896 0 0 Z " fill="#4889D7" transform="translate(253,229)"/>
<path d="M0 0 C1.91527165 5.68066965 -0.73381508 11.18726065 -3.09375 16.4296875 C-4.02767819 18.30421481 -5.00913292 20.15493715 -6 22 C-6.33 22 -6.66 22 -7 22 C-7 19.69 -7 17.38 -7 15 C-6.34 14.67 -5.68 14.34 -5 14 C-4.42321978 12.04183114 -3.93630036 10.0566772 -3.5 8.0625 C-2.21832061 2.21832061 -2.21832061 2.21832061 0 0 Z " fill="#4A87D7" transform="translate(286,188)"/>
<path d="M0 0 C7.88123239 -0.27653447 18.82053098 -0.58973451 26 3 C26 3.66 26 4.32 26 5 C17.10115016 4.52735047 8.66875541 3.03895283 0 1 C0 0.67 0 0.34 0 0 Z " fill="#4F8DD6" transform="translate(192,493)"/>
<path d="M0 0 C-0.95625555 3.08126789 -1.97097304 3.982188 -4.75 5.6875 C-10.48890236 7.93900967 -16.91578462 7.75528121 -23 8 C-23 7.67 -23 7.34 -23 7 C-21.7315625 6.61908203 -21.7315625 6.61908203 -20.4375 6.23046875 C-12.81193541 3.9268502 -12.81193541 3.9268502 -5.3125 1.25 C-2 0 -2 0 0 0 Z " fill="#4C8ED9" transform="translate(327,386)"/>
<path d="M0 0 C2.41747299 3.62620949 2.91993816 7.04121249 3.625 11.25 C3.7590625 11.98863281 3.893125 12.72726563 4.03125 13.48828125 C4.82149873 18.06043461 5.13497782 22.36167135 5 27 C4.34 27.33 3.68 27.66 3 28 C2.91435791 27.31373535 2.82871582 26.6274707 2.74047852 25.92041016 C2.35159892 22.82145205 1.95712079 19.72323203 1.5625 16.625 C1.42779297 15.54476562 1.29308594 14.46453125 1.15429688 13.3515625 C1.02216797 12.3203125 0.89003906 11.2890625 0.75390625 10.2265625 C0.63345947 9.27346191 0.5130127 8.32036133 0.38891602 7.33837891 C0.11554326 4.98574528 0.11554326 4.98574528 -1 3 C-0.67 2.01 -0.34 1.02 0 0 Z " fill="#508FD9" transform="translate(493,195)"/>
<path d="M0 0 C0 0.66 0 1.32 0 2 C-1.0621875 1.72285156 -2.124375 1.44570312 -3.21875 1.16015625 C-4.64576737 0.79401364 -6.07285448 0.42814278 -7.5 0.0625 C-8.19609375 -0.11990234 -8.8921875 -0.30230469 -9.609375 -0.49023438 C-14.39837494 -1.70965566 -19.08537471 -2.47422365 -24 -3 C-24 -3.33 -24 -3.66 -24 -4 C-15.85566101 -6.22118336 -7.52592367 -3.1928161 0 0 Z " fill="#4C89D8" transform="translate(317,106)"/>
<path d="M0 0 C0.33 0.66 0.66 1.32 1 2 C2.64363134 2.72159424 4.31050386 3.39351421 6 4 C6.77916092 9.02125926 7.13016601 12.97703996 6 18 C3.40052213 15.40052213 2.9315565 13.07261547 1.875 9.5625 C1.52179687 8.40878906 1.16859375 7.25507813 0.8046875 6.06640625 C0 3 0 3 0 0 Z " fill="#3F86E3" transform="translate(7,311)"/>
<path d="M0 0 C1.32 0.33 2.64 0.66 4 1 C3.67 1.99 3.34 2.98 3 4 C2.34 4 1.68 4 1 4 C1 4.66 1 5.32 1 6 C-4.62470514 9.06802099 -9.69403048 10.89061647 -16 12 C-13.65073382 8.47610074 -12.476388 8.19522251 -8.5625 6.875 C-7.59441406 6.54242188 -6.62632812 6.20984375 -5.62890625 5.8671875 C-4.32759766 5.43792969 -4.32759766 5.43792969 -3 5 C-2.01 4.67 -1.02 4.34 0 4 C0 2.68 0 1.36 0 0 Z " fill="#538CD3" transform="translate(149,373)"/>
<path d="M0 0 C1.9296875 0.71484375 1.9296875 0.71484375 4 2 C4.7578125 4.12890625 4.7578125 4.12890625 5.125 6.5625 C5.46228659 8.94252126 5.46228659 8.94252126 6 11 C6.66 11.33 7.32 11.66 8 12 C8.75 14.9375 8.75 14.9375 9 18 C8.34 18.66 7.68 19.32 7 20 C6.01540929 17.6062703 5.03721297 15.2102493 4.0625 12.8125 C3.78470703 12.13896484 3.50691406 11.46542969 3.22070312 10.77148438 C1.77378944 7.19778189 0.58836871 3.83556816 0 0 Z " fill="#4784D5" transform="translate(13,330)"/>
<path d="M0 0 C0.33 0.99 0.66 1.98 1 3 C-0.23414044 5.34282452 -1.49246493 7.48292584 -2.9375 9.6875 C-3.32357422 10.29400391 -3.70964844 10.90050781 -4.10742188 11.52539062 C-5.06246419 13.02280265 -6.03006086 14.51219401 -7 16 C-8.32 15.67 -9.64 15.34 -11 15 C-11 14.34 -11 13.68 -11 13 C-10.34 13 -9.68 13 -9 13 C-8.34 11.35 -7.68 9.7 -7 8 C-6.34 8 -5.68 8 -5 8 C-4.690625 7.38125 -4.38125 6.7625 -4.0625 6.125 C-3.375 4.75 -2.6875 3.375 -2 2 C-1.34 2 -0.68 2 0 2 C0 1.34 0 0.68 0 0 Z " fill="#4888D6" transform="translate(61,87)"/>
<path d="M0 0 C0 0.66 0 1.32 0 2 C-2.64 2 -5.28 2 -8 2 C-8.33 2.66 -8.66 3.32 -9 4 C-14.2493273 7.49955154 -18.93582051 7.3235827 -25 7 C-22.38825913 5.25883942 -20.83576328 4.52755512 -17.91015625 3.7109375 C-17.12576172 3.49179688 -16.34136719 3.27265625 -15.53320312 3.046875 C-14.71787109 2.82515625 -13.90253906 2.6034375 -13.0625 2.375 C-11.84530273 2.03082031 -11.84530273 2.03082031 -10.60351562 1.6796875 C-6.84358742 0.6433168 -3.95465976 0 0 0 Z " fill="#5390DA" transform="translate(197,6)"/>
<path d="M0 0 C1.98 0 3.96 0 6 0 C6 0.66 6 1.32 6 2 C6.61875 2.061875 7.2375 2.12375 7.875 2.1875 C10 3 10 3 11.25 5.5625 C11.4975 6.366875 11.745 7.17125 12 8 C12.66 8 13.32 8 14 8 C13.67 8.99 13.34 9.98 13 11 C11.39400651 9.73147606 9.79027425 8.460089 8.1875 7.1875 C7.29417969 6.47980469 6.40085937 5.77210938 5.48046875 5.04296875 C3.52923089 3.43588623 1.73725024 1.82959577 0 0 Z " fill="#3C78CF" transform="translate(91,442)"/>
<path d="M0 0 C8.285404 2.03739443 13.80537795 6.18747613 20 12 C20 12.33 20 12.66 20 13 C18.35 13 16.7 13 15 13 C14.814375 12.4225 14.62875 11.845 14.4375 11.25 C11.98704927 7.41451191 8.0104348 6.0052174 4 4 C4 3.34 4 2.68 4 2 C2.68 1.67 1.36 1.34 0 1 C0 0.67 0 0.34 0 0 Z " fill="#6B9CDA" transform="translate(266,254)"/>
<path d="M0 0 C0.66 0 1.32 0 2 0 C2 0.66 2 1.32 2 2 C2.66 2.33 3.32 2.66 4 3 C9.12338698 6.32327804 11.33243094 10.68756459 14 16 C13.01 16 12.02 16 11 16 C11 15.34 11 14.68 11 14 C10.34 14 9.68 14 9 14 C7.5760131 12.28480923 6.2336784 10.5012088 4.9375 8.6875 C3.86822266 7.20830078 3.86822266 7.20830078 2.77734375 5.69921875 C1 3 1 3 0 0 Z " fill="#3C79CD" transform="translate(43,389)"/>
<path d="M0 0 C0.33 0 0.66 0 1 0 C1 8.58 1 17.16 1 26 C0.01 26.33 -0.98 26.66 -2 27 C-1.34 18.09 -0.68 9.18 0 0 Z " fill="#4A87D7" transform="translate(372,308)"/>
<path d="M0 0 C3.28726683 1.64363341 3.83238397 4.83850882 5.10546875 8.15234375 C6.41764783 12.32954264 7.2534273 16.60726017 7 21 C6.34 21.66 5.68 22.32 5 23 C4.67 18.71 4.34 14.42 4 10 C3.34 10 2.68 10 2 10 C1.67 9.01 1.34 8.02 1 7 C0.34 7 -0.32 7 -1 7 C-0.67 4.69 -0.34 2.38 0 0 Z " fill="#4D8AD9" transform="translate(293,278)"/>
<path d="M0 0 C6.65050424 -0.24991456 12.56986533 0.26044666 19 2 C18.67 2.99 18.34 3.98 18 5 C15.18542106 4.55229391 12.37380871 4.09242783 9.5625 3.625 C8.76005859 3.49867187 7.95761719 3.37234375 7.13085938 3.2421875 C5.07479277 2.89517204 3.03509869 2.45409572 1 2 C0.67 1.34 0.34 0.68 0 0 Z " fill="#3882D9" transform="translate(287,4)"/>
<path d="M0 0 C6.28199181 3.27756095 11.55515231 7.48636368 17 12 C16.01 12.33 15.02 12.66 14 13 C12.31640625 11.85546875 12.31640625 11.85546875 10.5625 10.1875 C8.16394553 7.92845876 6.01216263 6.35712822 3 5 C3 4.34 3 3.68 3 3 C1.68 3 0.36 3 -1 3 C-0.67 2.01 -0.34 1.02 0 0 Z " fill="#5E95D7" transform="translate(386,41)"/>
<path d="M0 0 C-0.33 0.99 -0.66 1.98 -1 3 C-7.7685324 3.10152799 -14.30324864 3.03026944 -21 2 C-21 1.67 -21 1.34 -21 1 C-13.97252688 0.33411422 -7.05985273 -0.11766421 0 0 Z " fill="#4892DC" transform="translate(241,0)"/>
<path d="M0 0 C0.33 0 0.66 0 1 0 C1.25 5.625 1.25 5.625 -1 9 C-1.66 9 -2.32 9 -3 9 C-3.061875 9.78375 -3.12375 10.5675 -3.1875 11.375 C-3.5896875 12.674375 -3.5896875 12.674375 -4 14 C-6.5625 15.3125 -6.5625 15.3125 -9 16 C-7.30403824 12.48876259 -5.38971877 9.12460782 -3.4375 5.75 C-2.81746094 4.67234375 -2.19742187 3.5946875 -1.55859375 2.484375 C-1.04425781 1.66453125 -0.52992188 0.8446875 0 0 Z " fill="#5591D7" transform="translate(354,192)"/>
<path d="M0 0 C0.99 0.33 1.98 0.66 3 1 C2.67 1.66 2.34 2.32 2 3 C1.34 3 0.68 3 0 3 C0 3.66 0 4.32 0 5 C-1.53125 6.2890625 -1.53125 6.2890625 -3.5 7.625 C-4.1496875 8.07101562 -4.799375 8.51703125 -5.46875 8.9765625 C-5.9740625 9.31429688 -6.479375 9.65203125 -7 10 C-8 7 -8 7 -7.4375 4.875 C-6 3 -6 3 -2.875 2.25 C-1.92625 2.1675 -0.9775 2.085 0 2 C0 1.34 0 0.68 0 0 Z " fill="#4884D8" transform="translate(282,365)"/>
<path d="M0 0 C4.71025427 0.45290906 7.335774 1.0686192 11 4 C13.64934822 4.71433121 13.64934822 4.71433121 16 5 C15.34 6.32 14.68 7.64 14 9 C8.99900452 6.34151874 4.2954975 3.74123976 0 0 Z " fill="#6497D4" transform="translate(333,252)"/>
<path d="M0 0 C-0.5859375 1.921875 -0.5859375 1.921875 -2 4 C-5.0390625 4.828125 -5.0390625 4.828125 -8.625 5.25 C-10.40777344 5.47429688 -10.40777344 5.47429688 -12.2265625 5.703125 C-13.59941406 5.85007812 -13.59941406 5.85007812 -15 6 C-10.81919981 1.59115616 -6.24164074 -2.26968754 0 0 Z " fill="#5190E2" transform="translate(139,29)"/>
<path d="M0 0 C0.495 0.268125 0.99 0.53625 1.5 0.8125 C4.36168999 2.17180274 7.28213277 3.1435496 10.29296875 4.12109375 C12 5 12 5 13 8 C7.3856009 6.43551329 2.13189662 4.83604813 -3 2 C-2.01 1.34 -1.02 0.68 0 0 Z " fill="#508BD8" transform="translate(152,477)"/>
<path d="M0 0 C2 2 2 2 2.08203125 3.98828125 C1.54150741 8.64932016 0.95957527 12.17721528 -2 16 C-2.33 16 -2.66 16 -3 16 C-3.042721 14.33388095 -3.04063832 12.66617115 -3 11 C-2.67 10.67 -2.34 10.34 -2 10 C-1.79300437 8.50503158 -1.63320741 7.0033408 -1.5 5.5 C-1.11111111 1.11111111 -1.11111111 1.11111111 0 0 Z " fill="#387DD3" transform="translate(156,358)"/>
<path d="M0 0 C0.99 0.495 0.99 0.495 2 1 C2 1.99 2 2.98 2 4 C2.66 4 3.32 4 4 4 C5.00508801 5.78881736 6.00392736 7.58114696 7 9.375 C7.8353125 10.87160156 7.8353125 10.87160156 8.6875 12.3984375 C10 15 10 15 10 17 C8.68 16.67 7.36 16.34 6 16 C6 14.68 6 13.36 6 12 C5.34 12 4.68 12 4 12 C3.3291288 10.3767313 2.66342971 8.75132422 2 7.125 C1.62875 6.22007813 1.2575 5.31515625 0.875 4.3828125 C0 2 0 2 0 0 Z " fill="#5E95D9" transform="translate(461,119)"/>
<path d="M0 0 C-0.33 0.99 -0.66 1.98 -1 3 C-9.01659634 4.12513633 -16.92138585 4.09579384 -25 4 C-25 3.67 -25 3.34 -25 3 C-23.92621094 2.86722656 -22.85242188 2.73445313 -21.74609375 2.59765625 C-20.30989167 2.41930436 -18.87369399 2.24091705 -17.4375 2.0625 C-16.73302734 1.97548828 -16.02855469 1.88847656 -15.30273438 1.79882812 C-11.89507578 1.37483374 -8.49633807 0.92689592 -5.09765625 0.43359375 C-2 0 -2 0 0 0 Z " fill="#5E96D8" transform="translate(304,394)"/>
<path d="M0 0 C0 0.99 0 1.98 0 3 C-2.45293626 5.45293626 -3.97846694 6.92338502 -7.5 7.1875 C-8.325 7.125625 -9.15 7.06375 -10 7 C-11.67343448 7.29749946 -13.34305915 7.62127066 -15 8 C-11.93882432 5.37613513 -11.26826873 5 -7 5 C-7 4.34 -7 3.68 -7 3 C-4.69 2.01 -2.38 1.02 0 0 Z " fill="#5B92D7" transform="translate(326,222)"/>
<path d="M0 0 C2.48627517 3.0622744 4.09989404 6.1457054 5.6875 9.75 C6.12449219 10.73484375 6.56148438 11.7196875 7.01171875 12.734375 C7.33785156 13.48203125 7.66398437 14.2296875 8 15 C7.01 15.495 7.01 15.495 6 16 C5.34 15.34 4.68 14.68 4 14 C3.34 13.67 2.68 13.34 2 13 C2.33 11.35 2.66 9.7 3 8 C2.01 8 1.02 8 0 8 C0 5.36 0 2.72 0 0 Z " fill="#3A7AD3" transform="translate(471,136)"/>
<path d="M0 0 C2.625 -0.1875 2.625 -0.1875 5 0 C3.63629701 2.99220268 2.05091917 5.29026529 -0.125 7.75 C-0.93324219 8.67039062 -0.93324219 8.67039062 -1.7578125 9.609375 C-2.16773438 10.06828125 -2.57765625 10.5271875 -3 11 C-3.33 10.01 -3.66 9.02 -4 8 C-3.34 8 -2.68 8 -2 8 C-2.04125 7.236875 -2.0825 6.47375 -2.125 5.6875 C-2 3 -2 3 0 0 Z " fill="#4884D5" transform="translate(441,403)"/>
<path d="M0 0 C5.99172349 1.8831131 9.46569804 5.9775709 13 11 C12.67 11.66 12.34 12.32 12 13 C11.34 13 10.68 13 10 13 C10 12.01 10 11.02 10 10 C9.34 10 8.68 10 8 10 C8 8.68 8 7.36 8 6 C6.68 5.67 5.36 5.34 4 5 C4 4.34 4 3.68 4 3 C3.01 3 2.02 3 1 3 C0.67 2.01 0.34 1.02 0 0 Z " fill="#5C95D4" transform="translate(144,118)"/>
<path d="M0 0 C0.33 0.99 0.66 1.98 1 3 C0.34 3 -0.32 3 -1 3 C-1.1546875 4.175625 -1.1546875 4.175625 -1.3125 5.375 C-2 8 -2 8 -5 10 C-5 10.99 -5 11.98 -5 13 C-6.98 13 -8.96 13 -11 13 C-10.67 12.34 -10.34 11.68 -10 11 C-9.34 11 -8.68 11 -8 11 C-8 10.34 -8 9.68 -8 9 C-7.34 9 -6.68 9 -6 9 C-6 8.34 -6 7.68 -6 7 C-5.34 7 -4.68 7 -4 7 C-3.34 5.35 -2.68 3.7 -2 2 C-1.34 2 -0.68 2 0 2 C0 1.34 0 0.68 0 0 Z " fill="#5492DC" transform="translate(358,360)"/>
<path d="M0 0 C0.99 0 1.98 0 3 0 C2.51679152 6.2054142 1.66681876 11.99945246 0 18 C-0.33 18 -0.66 18 -1 18 C-1.09706112 11.88514973 -0.77040851 6.06696699 0 0 Z " fill="#4B8CD7" transform="translate(493,295)"/>
<path d="M0 0 C5.91492272 0.45224761 11.35199888 1.1582605 17 3 C17 3.33 17 3.66 17 4 C11.39 3.67 5.78 3.34 0 3 C0 2.01 0 1.02 0 0 Z " fill="#4D8EDB" transform="translate(249,250)"/>
<path d="M0 0 C0.66 0 1.32 0 2 0 C2 1.98 2 3.96 2 6 C1.01 6 0.02 6 -1 6 C-1 6.99 -1 7.98 -1 9 C-1.99 9 -2.98 9 -4 9 C-4 9.99 -4 10.98 -4 12 C-4.66 12 -5.32 12 -6 12 C-4.43358249 7.69235185 -2.31663844 3.93828536 0 0 Z " fill="#508FD9" transform="translate(34,125)"/>
<path d="M0 0 C2.52845528 1.26422764 2.76422764 2.52845528 4 5 C4.66 5.33 5.32 5.66 6 6 C6.72693904 7.97888961 7.39816251 9.97954558 8 12 C7.34 12.66 6.68 13.32 6 14 C4.8529806 12.20909242 3.70742065 10.41725003 2.5625 8.625 C1.60537109 7.12839844 1.60537109 7.12839844 0.62890625 5.6015625 C-1 3 -1 3 -2 1 C-1.34 0.67 -0.68 0.34 0 0 Z " fill="#4D86DB" transform="translate(347,125)"/>
<path d="M0 0 C0.99 0.33 1.98 0.66 3 1 C1.67726488 4.59758392 0.0805802 7.63737135 -2.0625 10.8125 C-2.58972656 11.60269531 -3.11695313 12.39289063 -3.66015625 13.20703125 C-4.10230469 13.79871094 -4.54445313 14.39039063 -5 15 C-5.33 15 -5.66 15 -6 15 C-6 13.35 -6 11.7 -6 10 C-5.34 10 -4.68 10 -4 10 C-3.71125 9.401875 -3.4225 8.80375 -3.125 8.1875 C-2 6 -2 6 0 3 C0 2.01 0 1.02 0 0 Z " fill="#4988D5" transform="translate(465,370)"/>
<path d="M0 0 C0.33 0 0.66 0 1 0 C0.67 5.61 0.34 11.22 0 17 C-0.99 17 -1.98 17 -3 17 C-2.54775239 11.08507728 -1.8417395 5.64800112 0 0 Z " fill="#397FD8" transform="translate(7,190)"/>
<path d="M0 0 C2.56998247 0.9423269 3.79624944 1.68952295 5.3125 4 C6.32680453 8.42605613 5.64052412 12.54229835 5 17 C4.67 17 4.34 17 4 17 C3.87882812 16.443125 3.75765625 15.88625 3.6328125 15.3125 C2.50669922 10.18435338 1.29514693 5.08807722 0 0 Z " fill="#5D96E0" transform="translate(354,140)"/>
<path d="M0 0 C0.91004613 3.07140568 1.33694826 5.79899154 1 9 C-2 11 -2 11 -4.1875 10.625 C-4.785625 10.41875 -5.38375 10.2125 -6 10 C-5.01 9.67 -4.02 9.34 -3 9 C-2.87625 8.071875 -2.7525 7.14375 -2.625 6.1875 C-2 3 -2 3 0 0 Z " fill="#1570E6" transform="translate(51,101)"/>
<path d="M0 0 C0 0.99 0 1.98 0 3 C1.0725 2.95875 2.145 2.9175 3.25 2.875 C6.65747485 2.9885825 8.20739631 3.21273364 11 5 C11 5.66 11 6.32 11 7 C6.68068613 6.38388165 2.74791225 5.35761422 -1.375 3.9375 C-2.43460937 3.57527344 -3.49421875 3.21304688 -4.5859375 2.83984375 C-5.38257813 2.56269531 -6.17921875 2.28554687 -7 2 C-4 0 -4 0 0 0 Z " fill="#6196DC" transform="translate(318,243)"/>
<path d="M0 0 C0.33 0.66 0.66 1.32 1 2 C0.26821134 4.07196631 -0.55899003 6.1108552 -1.4375 8.125 C-1.91058594 9.22070312 -2.38367188 10.31640625 -2.87109375 11.4453125 C-3.24363281 12.28835938 -3.61617188 13.13140625 -4 14 C-4.33 14 -4.66 14 -5 14 C-5.22973141 9.29050618 -4.65049717 5.43028188 -3 1 C-2.01 0.67 -1.02 0.34 0 0 Z " fill="#508CD5" transform="translate(484,336)"/>
<path d="M0 0 C0.33 0 0.66 0 1 0 C0.88529863 1.75070517 0.75780972 3.50057536 0.625 5.25 C0.55539062 6.22453125 0.48578125 7.1990625 0.4140625 8.203125 C0.01534751 10.89633189 -0.63507063 12.66963279 -2 15 C-2.66 15 -3.32 15 -4 15 C-3.855625 14.319375 -3.71125 13.63875 -3.5625 12.9375 C-2.93054091 9.63726918 -2.45686059 6.32855574 -2 3 C-1.34 3 -0.68 3 0 3 C0 2.01 0 1.02 0 0 Z " fill="#4783D7" transform="translate(299,328)"/>
<path d="M0 0 C0.99 0.33 1.98 0.66 3 1 C3 1.33 3 1.66 3 2 C8.94 2.99 8.94 2.99 15 4 C15 4.66 15 5.32 15 6 C9.08507728 5.54775239 3.64800112 4.8417395 -2 3 C-1.34 2.01 -0.68 1.02 0 0 Z " fill="#5A84C3" transform="translate(289,236)"/>
<path d="M0 0 C0.33 0 0.66 0 1 0 C1 1.65 1 3.3 1 5 C1.66 5 2.32 5 3 5 C2.7834375 5.8353125 2.7834375 5.8353125 2.5625 6.6875 C1.97230872 9.11384195 1.476571 11.54906345 1 14 C0.34 14 -0.32 14 -1 14 C-1.33 15.32 -1.66 16.64 -2 18 C-3.28682545 14.13952366 -2.27651028 12.82953085 -1 9 C-0.55039248 6.00913255 -0.254452 3.0132474 0 0 Z " fill="#498EDC" transform="translate(358,175)"/>
<path d="M0 0 C0.66 0.33 1.32 0.66 2 1 C2 1.99 2 2.98 2 4 C-0.40625 5.82421875 -0.40625 5.82421875 -3.5 7.6875 C-4.5209375 8.31011719 -5.541875 8.93273437 -6.59375 9.57421875 C-7.3878125 10.04472656 -8.181875 10.51523437 -9 11 C-9.66 10.34 -10.32 9.68 -11 9 C-10 7 -10 7 -8.15234375 6.3671875 C-7.42144531 6.20476562 -6.69054687 6.04234375 -5.9375 5.875 C-5.20402344 5.70742188 -4.47054688 5.53984375 -3.71484375 5.3671875 C-3.14894531 5.24601562 -2.58304687 5.12484375 -2 5 C-2 4.34 -2 3.68 -2 3 C-1.34 3 -0.68 3 0 3 C0 2.01 0 1.02 0 0 Z " fill="#4F8BD6" transform="translate(396,448)"/>
<path d="M0 0 C1.32 0 2.64 0 4 0 C4.45375 1.0725 4.9075 2.145 5.375 3.25 C6.50088537 5.88062317 7.67920206 8.46000396 9 11 C8.01 11 7.02 11 6 11 C4.02 7.37 2.04 3.74 0 0 Z " fill="#558DD7" transform="translate(35,377)"/>
<path d="M0 0 C1.65 0 3.3 0 5 0 C3.17860018 3.64279963 -1.30693995 4.68328929 -5 6 C-8.0625 6.25 -8.0625 6.25 -10 6 C-8.68 5.67 -7.36 5.34 -6 5 C-5.67 3.68 -5.34 2.36 -5 1 C-3.35 1.33 -1.7 1.66 0 2 C0 1.34 0 0.68 0 0 Z " fill="#4883D9" transform="translate(268,375)"/>
<path d="M0 0 C0.99 0.495 0.99 0.495 2 1 C2 1.66 2 2.32 2 3 C2.66 3 3.32 3 4 3 C5.6875 5.3125 5.6875 5.3125 7 8 C6.67 8.99 6.34 9.98 6 11 C4.68 10.67 3.36 10.34 2 10 C1.34 6.7 0.68 3.4 0 0 Z " fill="#4C8DDC" transform="translate(286,267)"/>
<path d="M0 0 C2.125 0.375 2.125 0.375 4 1 C3.03320312 1.29003906 3.03320312 1.29003906 2.046875 1.5859375 C-0.34351201 2.88708247 -0.34351201 2.88708247 -0.609375 6.0390625 C-0.65578125 7.22242187 -0.7021875 8.40578125 -0.75 9.625 C-0.80671875 10.81351563 -0.8634375 12.00203125 -0.921875 13.2265625 C-0.94765625 14.14179687 -0.9734375 15.05703125 -1 16 C-1.66 16 -2.32 16 -3 16 C-3.33 14.02 -3.66 12.04 -4 10 C-3.34 10 -2.68 10 -2 10 C-2.04125 8.72125 -2.0825 7.4425 -2.125 6.125 C-2.1953125 3.9453125 -2.1953125 3.9453125 -2 2 C-1.34 1.34 -0.68 0.68 0 0 Z " fill="#1268E0" transform="translate(118,98)"/>
<path d="M0 0 C0 0.66 0 1.32 0 2 C1.32 2.33 2.64 2.66 4 3 C-2.73742646 3.11044961 -9.29980211 2.70132913 -16 2 C-16 1.67 -16 1.34 -16 1 C-10.65097076 0.40801257 -5.39115154 -0.14187241 0 0 Z " fill="#3172CE" transform="translate(294,99)"/>
<path d="M0 0 C0.66 0 1.32 0 2 0 C2 0.66 2 1.32 2 2 C2.8971875 2.37125 2.8971875 2.37125 3.8125 2.75 C6.28647521 4.16370012 7.43370255 5.65055383 9 8 C8.01 8.495 8.01 8.495 7 9 C7 8.34 7 7.68 7 7 C6.34 7 5.68 7 5 7 C5 7.66 5 8.32 5 9 C4.34 9 3.68 9 3 9 C2.01 6.03 1.02 3.06 0 0 Z " fill="#4285DB" transform="translate(409,59)"/>
<path d="M0 0 C3.3 0 6.6 0 10 0 C10 0.66 10 1.32 10 2 C11.98 2 13.96 2 16 2 C15.34 2.66 14.68 3.32 14 4 C9.12507777 3.61765316 4.64987264 2.4234304 0 1 C0 0.67 0 0.34 0 0 Z " fill="#4783D6" transform="translate(178,489)"/>
<path d="M0 0 C0.66 0 1.32 0 2 0 C2.17835515 4.54805635 1.99785435 7.8794254 0 12 C-0.66 12 -1.32 12 -2 12 C-2.21278058 7.53160785 -1.59138085 4.17737474 0 0 Z " fill="#3979CF" transform="translate(487,320)"/>
<path d="M0 0 C0.99 0.33 1.98 0.66 3 1 C3 1.99 3 2.98 3 4 C3.66 4 4.32 4 5 4 C5 7.3 5 10.6 5 14 C2.99006295 10.98509443 2.27376659 8.7850073 1.375 5.3125 C1.11460937 4.31863281 0.85421875 3.32476562 0.5859375 2.30078125 C0.39257812 1.54152344 0.19921875 0.78226562 0 0 Z " fill="#4884D6" transform="translate(366,284)"/>
<path d="M0 0 C-0.61875 0.2475 -1.2375 0.495 -1.875 0.75 C-4.45868886 2.01039254 -4.45868886 2.01039254 -6 6 C-8.97 6 -11.94 6 -15 6 C-13.48400735 2.9680147 -11.1403567 2.58975563 -8.0625 1.3125 C-6.98097656 0.85488281 -5.89945313 0.39726562 -4.78515625 -0.07421875 C-2 -1 -2 -1 0 0 Z " fill="#639ADF" transform="translate(160,18)"/>
<path d="M0 0 C1.98 0.66 3.96 1.32 6 2 C6 4.31 6 6.62 6 9 C3 8 3 8 2.05078125 6.15234375 C1.80714844 5.42144531 1.56351563 4.69054687 1.3125 3.9375 C1.06113281 3.20402344 0.80976563 2.47054688 0.55078125 1.71484375 C0.36902344 1.14894531 0.18726562 0.58304687 0 0 Z " fill="#3579D8" transform="translate(21,350)"/>
<path d="M0 0 C2.18975773 3.28463659 2.99806563 6.20696275 4 10 C1.0625 9.1875 1.0625 9.1875 -2 8 C-2.33 7.01 -2.66 6.02 -3 5 C-2.01 4.67 -1.02 4.34 0 4 C0 2.68 0 1.36 0 0 Z " fill="#4286DF" transform="translate(479,152)"/>
<path d="M0 0 C2.93200474 2.85276137 5.64315404 5.65079784 8 9 C6.02 9 4.04 9 2 9 C1.34 6.03 0.68 3.06 0 0 Z " fill="#508EDC" transform="translate(425,73)"/>
<path d="M0 0 C0.66 0 1.32 0 2 0 C2 0.66 2 1.32 2 2 C2.86625 2.37125 2.86625 2.37125 3.75 2.75 C6.3002997 4.16683317 8.01785701 5.87627537 10 8 C9.67 8.99 9.34 9.98 9 11 C7.68141572 9.73548068 6.37032369 8.46314525 5.0625 7.1875 C4.33160156 6.47980469 3.60070312 5.77210938 2.84765625 5.04296875 C1 3 1 3 0 0 Z " fill="#427DCE" transform="translate(73,424)"/>
<path d="M0 0 C-0.99 0.33 -1.98 0.66 -3 1 C-2.67 1.99 -2.34 2.98 -2 4 C-6.29 3.67 -10.58 3.34 -15 3 C-15 2.67 -15 2.34 -15 2 C-12.87707704 1.47076428 -10.75157949 0.95184623 -8.625 0.4375 C-7.44164062 0.14746094 -6.25828125 -0.14257812 -5.0390625 -0.44140625 C-2 -1 -2 -1 0 0 Z " fill="#4785D5" transform="translate(306,233)"/>
<path d="M0 0 C3.5718623 3.5718623 4 8.10186234 4 13 C3.34 13 2.68 13 2 13 C2 12.01 2 11.02 2 10 C1.34 10 0.68 10 0 10 C0 6.7 0 3.4 0 0 Z " fill="#4583D3" transform="translate(489,181)"/>
<path d="M0 0 C1.32 0.33 2.64 0.66 4 1 C4 1.99 4 2.98 4 4 C4.99 4.33 5.98 4.66 7 5 C8.1875 8.0625 8.1875 8.0625 9 11 C8.01 11.495 8.01 11.495 7 12 C6.01993141 10.37554381 5.04097364 8.75041739 4.0625 7.125 C3.51722656 6.22007812 2.97195313 5.31515625 2.41015625 4.3828125 C1.56101983 2.94798364 0.74562276 1.49124552 0 0 Z " fill="#538AD5" transform="translate(358,272)"/>
<path d="M0 0 C0.99 0.495 0.99 0.495 2 1 C2 1.66 2 2.32 2 3 C2.66 3 3.32 3 4 3 C4 3.66 4 4.32 4 5 C4.66 5 5.32 5 6 5 C6.33 5.99 6.66 6.98 7 8 C5.68 8 4.36 8 3 8 C3 8.66 3 9.32 3 10 C2.34 10 1.68 10 1 10 C1.020625 9.0925 1.04125 8.185 1.0625 7.25 C1.0110245 4.57327412 0.7784983 2.53011948 0 0 Z " fill="#4687DA" transform="translate(433,82)"/>
<path d="M0 0 C5.28 0 10.56 0 16 0 C11.62763497 2.91491002 7.73530096 3.22085649 2.5625 2.5625 C1.716875 2.376875 0.87125 2.19125 0 2 C0 1.34 0 0.68 0 0 Z " fill="#377BD6" transform="translate(305,489)"/>
<path d="M0 0 C3.44270451 1.53009089 6.18925822 3.4931222 9 6 C9.33 6.99 9.66 7.98 10 9 C5.57238086 7.60846256 3.0443745 5.47928514 0 2 C0 1.34 0 0.68 0 0 Z " fill="#4C85CF" transform="translate(226,370)"/>
<path d="M0 0 C3.34373475 0.55728913 6.03312999 1.35173889 9 3 C9 4.65 9 6.3 9 8 C7.68388323 7.04663979 6.37221039 6.08714226 5.0625 5.125 C4.33160156 4.59132813 3.60070312 4.05765625 2.84765625 3.5078125 C1 2 1 2 0 0 Z " fill="#548FD9" transform="translate(336,118)"/>
<path d="M0 0 C2.97 0.495 2.97 0.495 6 1 C5.67 1.99 5.34 2.98 5 4 C2.125 4.625 2.125 4.625 -1 5 C-1.66 4.34 -2.32 3.68 -3 3 C-2.01 2.67 -1.02 2.34 0 2 C0 1.34 0 0.68 0 0 Z " fill="#2775E3" transform="translate(414,66)"/>
<path d="M0 0 C-1 2 -1 2 -3.75 3.1875 C-7.04421792 4.01105448 -8.79021705 3.94405381 -12 3 C-12 2.67 -12 2.34 -12 2 C-10.35 2 -8.7 2 -7 2 C-7 1.34 -7 0.68 -7 0 C-2.25 -1.125 -2.25 -1.125 0 0 Z " fill="#3A7DD1" transform="translate(332,485)"/>
<path d="M0 0 C0.66 0.66 1.32 1.32 2 2 C0.68 4.64 -0.64 7.28 -2 10 C-2.33 10 -2.66 10 -3 10 C-2.88637738 8.5199159 -2.75877092 7.04089926 -2.625 5.5625 C-2.55539062 4.73878906 -2.48578125 3.91507812 -2.4140625 3.06640625 C-2.27742188 2.38449219 -2.14078125 1.70257813 -2 1 C-1.34 0.67 -0.68 0.34 0 0 Z " fill="#4183D6" transform="translate(471,361)"/>
<path d="M0 0 C0.33 0 0.66 0 1 0 C1.17942163 3.94727588 1.09350689 6.5980513 -1 10 C-1.66 10 -2.32 10 -3 10 C-3.33 11.32 -3.66 12.64 -4 14 C-4.33 13.34 -4.66 12.68 -5 12 C-4.26821134 9.92803369 -3.44100997 7.8891448 -2.5625 5.875 C-2.08941406 4.77929688 -1.61632812 3.68359375 -1.12890625 2.5546875 C-0.75636719 1.71164063 -0.38382813 0.86859375 0 0 Z " fill="#6C9FDC" transform="translate(22,147)"/>
<path d="M0 0 C0.33 0.99 0.66 1.98 1 3 C1.66 3 2.32 3 3 3 C3 3.66 3 4.32 3 5 C2.34 5 1.68 5 1 5 C0.67 6.98 0.34 8.96 0 11 C-0.66 11 -1.32 11 -2 11 C-1.125 3.375 -1.125 3.375 0 0 Z " fill="#4D90DE" transform="translate(10,179)"/>
<path d="M0 0 C1.875 0.1875 1.875 0.1875 4 1 C5.25 3.5625 5.25 3.5625 6 6 C6.66 6 7.32 6 8 6 C7.67 6.99 7.34 7.98 7 9 C5.29115995 7.37660195 3.62553283 5.70680947 2 4 C2 3.34 2 2.68 2 2 C1.34 1.34 0.68 0.68 0 0 Z " fill="#427ED9" transform="translate(97,444)"/>
<path d="M0 0 C1.98 0.99 1.98 0.99 4 2 C4.875 4.9375 4.875 4.9375 5 8 C4.01 9.485 4.01 9.485 3 11 C2.01 7.37 1.02 3.74 0 0 Z " fill="#5D97DE" transform="translate(13,330)"/>
<path d="M0 0 C4.99275057 1.27721526 7.57611908 3.17330957 11 7 C9.35 7 7.7 7 6 7 C5.7525 6.38125 5.505 5.7625 5.25 5.125 C3.79371361 2.64931313 2.62187494 2.04874998 0 1 C0 0.67 0 0.34 0 0 Z " fill="#3D81D6" transform="translate(275,260)"/>
<path d="M0 0 C0.33 0 0.66 0 1 0 C1 3.3 1 6.6 1 10 C0.34 10 -0.32 10 -1 10 C-1 10.66 -1 11.32 -1 12 C-1.66 12 -2.32 12 -3 12 C-2.01 8.04 -1.02 4.08 0 0 Z " fill="#5290D6" transform="translate(14,166)"/>
<path d="M0 0 C1.98 0 3.96 0 6 0 C6 1.98 6 3.96 6 6 C3.96166576 4.7260411 1.96147874 3.38938077 0 2 C0 1.34 0 0.68 0 0 Z " fill="#4280D8" transform="translate(85,436)"/>
<path d="M0 0 C0 0.66 0 1.32 0 2 C-0.66 2 -1.32 2 -2 2 C-2.33 2.99 -2.66 3.98 -3 5 C-3.33 4.34 -3.66 3.68 -4 3 C-4.99 3 -5.98 3 -7 3 C-6.67 2.01 -6.34 1.02 -6 0 C-3.50907189 -1.24546405 -2.58919267 -0.7767578 0 0 Z " fill="#387EDD" transform="translate(433,418)"/>
<path d="M0 0 C0.33 0 0.66 0 1 0 C1.22151549 1.79008467 1.42682213 3.58218162 1.625 5.375 C1.74101562 6.37273437 1.85703125 7.37046875 1.9765625 8.3984375 C1.98429688 9.25695312 1.99203125 10.11546875 2 11 C1.34 11.66 0.68 12.32 0 13 C-1.0161692 8.37078475 -0.83796731 4.65537393 0 0 Z " fill="#3780DE" transform="translate(225,357)"/>
<path d="M0 0 C3.54971796 0.60852308 6.76693609 1.38346804 10 3 C10.33 3.99 10.66 4.98 11 6 C9.35 6 7.7 6 6 6 C6 5.34 6 4.68 6 4 C5.01 3.67 4.02 3.34 3 3 C3 2.34 3 1.68 3 1 C2.01 0.67 1.02 0.34 0 0 Z " fill="#196AD7" transform="translate(262,254)"/>
<path d="M0 0 C0.66 0.33 1.32 0.66 2 1 C1.37240135 3.92879371 0.41377341 6.36095629 -1 9 C-1.99 8.67 -2.98 8.34 -4 8 C-2.68 5.36 -1.36 2.72 0 0 Z " fill="#4A86D6" transform="translate(27,138)"/>
<path d="M0 0 C0.66 0.33 1.32 0.66 2 1 C1.67 1.99 1.34 2.98 1 4 C-2.3 4 -5.6 4 -9 4 C-6.00084818 2.50042409 -3.16379181 1.08234983 0 0 Z " fill="#508FD9" transform="translate(169,13)"/>
<path d="M0 0 C5.53846154 -0.36923077 5.53846154 -0.36923077 7.875 1.5 C8.24625 1.995 8.6175 2.49 9 3 C8.67 3.66 8.34 4.32 8 5 C4.62496331 3.8141763 2.35277269 2.72426311 0 0 Z " fill="#4987DB" transform="translate(112,458)"/>
<path d="M0 0 C0.66 0.99 1.32 1.98 2 3 C1.125 6.1875 1.125 6.1875 0 9 C-0.66 9 -1.32 9 -2 9 C-2.33 9.99 -2.66 10.98 -3 12 C-2.67 9.69 -2.34 7.38 -2 5 C-1.34 5 -0.68 5 0 5 C0 3.35 0 1.7 0 0 Z " fill="#5A8DD7" transform="translate(476,350)"/>
<path d="M0 0 C2.96404505 2.80804268 5.44499019 5.18315774 7 9 C6.34 9 5.68 9 5 9 C5 8.34 5 7.68 5 7 C3.68 7 2.36 7 1 7 C0.67 4.69 0.34 2.38 0 0 Z " fill="#4F8DD3" transform="translate(444,95)"/>
<path d="M0 0 C0.33 1.32 0.66 2.64 1 4 C0.01 4.33 -0.98 4.66 -2 5 C-2 5.66 -2 6.32 -2 7 C-3.32 7.33 -4.64 7.66 -6 8 C-5.67 7.01 -5.34 6.02 -5 5 C-4.34 5 -3.68 5 -3 5 C-2.5359375 4.0409375 -2.5359375 4.0409375 -2.0625 3.0625 C-1 1 -1 1 0 0 Z " fill="#679FD7" transform="translate(72,75)"/>
<path d="M0 0 C-1.45381897 0.69699552 -2.91322953 1.38233866 -4.375 2.0625 C-5.18710937 2.44535156 -5.99921875 2.82820313 -6.8359375 3.22265625 C-7.55007813 3.47917969 -8.26421875 3.73570312 -9 4 C-9.66 3.67 -10.32 3.34 -11 3 C-9 0 -9 0 -5.5 -0.75 C-2 -1 -2 -1 0 0 Z " fill="#166ADB" transform="translate(313,394)"/>
<path d="M0 0 C0.66 0 1.32 0 2 0 C1.50168276 3.68754757 0.89932357 5.60490662 -2 8 C-2 6.02 -2 4.04 -2 2 C-1.34 2 -0.68 2 0 2 C0 1.34 0 0.68 0 0 Z " fill="#3D81D7" transform="translate(453,389)"/>
<path d="M0 0 C0.66 0 1.32 0 2 0 C2 0.66 2 1.32 2 2 C2.66 2.33 3.32 2.66 4 3 C5.6875 4.875 5.6875 4.875 7 7 C6.67 7.99 6.34 8.98 6 10 C4.99723227 8.52270825 3.99785546 7.04311423 3 5.5625 C2.443125 4.73878906 1.88625 3.91507812 1.3125 3.06640625 C0 1 0 1 0 0 Z " fill="#659BD7" transform="translate(43,389)"/>
<path d="M0 0 C-0.66 1.32 -1.32 2.64 -2 4 C-4.64 4 -7.28 4 -10 4 C-6.86268382 1.90845588 -3.85464592 0 0 0 Z " fill="#5E95DA" transform="translate(327,386)"/>
<path d="M0 0 C0.66 0.33 1.32 0.66 2 1 C1.67 1.66 1.34 2.32 1 3 C0.34 3 -0.32 3 -1 3 C-1 3.66 -1 4.32 -1 5 C-3.31 5.33 -5.62 5.66 -8 6 C-5.63404067 3.38499232 -3.13950774 1.61000397 0 0 Z " fill="#568DD7" transform="translate(336,380)"/>
<path d="M0 0 C0.33 0 0.66 0 1 0 C1.125 3.375 1.125 3.375 1 7 C0.34 7.66 -0.32 8.32 -1 9 C-1.99 8.67 -2.98 8.34 -4 8 C-3.34 8 -2.68 8 -2 8 C-1.7834375 6.576875 -1.7834375 6.576875 -1.5625 5.125 C-1 2 -1 2 0 0 Z " fill="#357AD7" transform="translate(361,355)"/>
<path d="M0 0 C0.99 0.33 1.98 0.66 3 1 C3 2.32 3 3.64 3 5 C3.66 5.33 4.32 5.66 5 6 C4.34 6 3.68 6 3 6 C3 6.66 3 7.32 3 8 C2.01 8 1.02 8 0 8 C0 5.36 0 2.72 0 0 Z " fill="#4395ED" transform="translate(0,229)"/>
<path d="M0 0 C0.66 0.33 1.32 0.66 2 1 C1.34 2.65 0.68 4.3 0 6 C-1.65 6 -3.3 6 -5 6 C-3.625 4 -3.625 4 -2 2 C-1.34 2 -0.68 2 0 2 C0 1.34 0 0.68 0 0 Z " fill="#6097DD" transform="translate(341,210)"/>
<path d="M0 0 C3.08089673 2.77280706 4.68775452 5.06326356 6 9 C2.83884224 7.63016497 2.0072908 7.0109362 0 4 C0 2.68 0 1.36 0 0 Z " fill="#5C95D6" transform="translate(455,110)"/>
<path d="M0 0 C6.0546875 -0.1953125 6.0546875 -0.1953125 8 0 C8.66 0.66 9.32 1.32 10 2 C9.67 2.66 9.34 3.32 9 4 C6.03 3.01 3.06 2.02 0 1 C0 0.67 0 0.34 0 0 Z " fill="#578EDA" transform="translate(317,108)"/>
<path d="M0 0 C0.33 0 0.66 0 1 0 C1.66 2.97 2.32 5.94 3 9 C0.35247996 6.42215154 -1.94432065 4.08351902 -4 1 C-2.68 1.33 -1.36 1.66 0 2 C0 1.34 0 0.68 0 0 Z " fill="#5D95D6" transform="translate(60,406)"/>
<path d="M0 0 C0.66 0 1.32 0 2 0 C1.45773019 3.79588866 -0.20127563 5.47211993 -3 8 C-2.45276317 4.62537285 -1.9451 2.91765 0 0 Z " fill="#4583D1" transform="translate(288,357)"/>
<path d="M0 0 C1.98 0 3.96 0 6 0 C6.33 0.66 6.66 1.32 7 2 C6.01 2.99 5.02 3.98 4 5 C2.64567325 3.68799596 1.31266518 2.35368596 0 1 C0 0.67 0 0.34 0 0 Z " fill="#407FDA" transform="translate(342,256)"/>
<path d="M0 0 C1.32 0.33 2.64 0.66 4 1 C2.6875 3 2.6875 3 1 5 C0.01 5 -0.98 5 -2 5 C-2 4.01 -2 3.02 -2 2 C-1.34 2 -0.68 2 0 2 C0 1.34 0 0.68 0 0 Z " fill="#4084D3" transform="translate(91,57)"/>
<path d="M0 0 C1.875 1.1875 1.875 1.1875 2.875 3.1875 C0.5318787 2.93188677 -1.80343403 2.59479228 -4.125 2.1875 C-4.455 1.5275 -4.785 0.8675 -5.125 0.1875 C-2.125 -0.8125 -2.125 -0.8125 0 0 Z " fill="#4386D8" transform="translate(154.125,477.8125)"/>
<path d="M0 0 C0.66 0.33 1.32 0.66 2 1 C1.67 2.65 1.34 4.3 1 6 C0.01 6.33 -0.98 6.66 -2 7 C-1.125 1.125 -1.125 1.125 0 0 Z " fill="#357BDA" transform="translate(276,368)"/>
<path d="M0 0 C1.32 0.33 2.64 0.66 4 1 C4 2.98 4 4.96 4 7 C1.49962266 4.82575883 0.56371414 3.26954202 0 0 Z " fill="#5F94D9" transform="translate(28,364)"/>
<path d="M0 0 C1.65 0 3.3 0 5 0 C5 0.66 5 1.32 5 2 C1.53846154 5 1.53846154 5 -1 5 C-0.67 3.35 -0.34 1.7 0 0 Z " fill="#548CD9" transform="translate(268,217)"/>
<path d="M0 0 C3.77545388 1.09068668 6.47043472 1.9083091 9 5 C7.68 5 6.36 5 5 5 C5 4.34 5 3.68 5 3 C3.35 2.67 1.7 2.34 0 2 C0 1.34 0 0.68 0 0 Z " fill="#6D9FD6" transform="translate(367,30)"/>
<path d="M0 0 C1.65 0.33 3.3 0.66 5 1 C5 1.66 5 2.32 5 3 C3.02 3.66 1.04 4.32 -1 5 C-0.67 3.35 -0.34 1.7 0 0 Z " fill="#3E7DD3" transform="translate(363,468)"/>
<path d="M0 0 C0.33 0.66 0.66 1.32 1 2 C1.99 2.33 2.98 2.66 4 3 C4 4.65 4 6.3 4 8 C3.34 8 2.68 8 2 8 C0.74335022 5.09399739 0 3.20395416 0 0 Z " fill="#568ED7" transform="translate(7,311)"/>
<path d="M0 0 C0.33 0 0.66 0 1 0 C1.125 7.75 1.125 7.75 0 10 C-0.66 10 -1.32 10 -2 10 C-1.34 6.7 -0.68 3.4 0 0 Z " fill="#5F96D6" transform="translate(7,190)"/>
<path d="M0 0 C1.65 1.65 3.3 3.3 5 5 C4.67 5.66 4.34 6.32 4 7 C3.34 7 2.68 7 2 7 C2 6.01 2 5.02 2 4 C1.34 4 0.68 4 0 4 C0 2.68 0 1.36 0 0 Z " fill="#4385CF" transform="translate(152,124)"/>
<path d="M0 0 C0.66 0 1.32 0 2 0 C2 0.66 2 1.32 2 2 C3.32 2.33 4.64 2.66 6 3 C5.67 3.66 5.34 4.32 5 5 C2.36 4.34 -0.28 3.68 -3 3 C-2.01 2.67 -1.02 2.34 0 2 C0 1.34 0 0.68 0 0 Z " fill="#4B8BDD" transform="translate(403,54)"/>
<path d="M0 0 C0.66 0.33 1.32 0.66 2 1 C2 1.99 2 2.98 2 4 C-0.31 4.33 -2.62 4.66 -5 5 C-3.35 3.35 -1.7 1.7 0 0 Z " fill="#649DE3" transform="translate(108,44)"/>
<path d="M0 0 C-1 3 -1 3 -4 5 C-6.1875 4.625 -6.1875 4.625 -8 4 C-2.25 0 -2.25 0 0 0 Z " fill="#578ED2" transform="translate(118,39)"/>
<path d="M0 0 C-0.33 0.66 -0.66 1.32 -1 2 C-3.64860427 2.59355614 -6.29197322 2.74209269 -9 3 C-7.01532024 -0.96935951 -3.9567243 -1.41311582 0 0 Z " fill="#1E6CD0" transform="translate(164,18)"/>
</svg>
